# MagicaVoxel @ Ephtracy

# material
mtllib floor_01.mtl
usemtl palette

# normals
vn -1 0 0
vn 1 0 0
vn 0 0 1
vn 0 0 -1
vn 0 -1 0
vn 0 1 0

# texcoords
vt 0.216797 0.5
vt 0.439453 0.5
vt 0.908203 0.5

# verts
v -12 0 12
v -12 0 -12
v -12 1 12
v -12 1 -12
v -11 1 11
v -11 1 -11
v -11 2 11
v -11 2 -11
v 9 1 9
v 9 1 -9
v 9 2 9
v 9 2 -9
v -9 1 9
v -9 1 -9
v -9 2 9
v -9 2 -9
v 11 1 11
v 11 1 -11
v 11 2 11
v 11 2 -11
v 12 0 12
v 12 0 -12
v 12 1 12
v 12 1 -12
v -12 0 12
v -12 1 12
v 12 0 12
v 12 1 12
v -11 1 11
v -11 2 11
v 11 1 11
v 11 2 11
v -9 1 -9
v -9 2 -9
v 9 1 -9
v 9 2 -9
v -9 1 9
v -9 2 9
v 9 1 9
v 9 2 9
v -11 1 -11
v -11 2 -11
v 11 1 -11
v 11 2 -11
v -12 0 -12
v -12 1 -12
v 12 0 -12
v 12 1 -12
v -12 0 12
v 12 0 12
v -9 0 9
v 9 0 9
v -9 0 -9
v 9 0 -9
v -12 0 -12
v 12 0 -12
v -12 1 12
v 12 1 12
v -11 1 11
v 11 1 11
v -9 1 9
v 9 1 9
v -9 1 -9
v 9 1 -9
v -11 1 -11
v 11 1 -11
v -12 1 -12
v 12 1 -12
v -11 2 11
v 11 2 11
v -9 2 9
v 9 2 9
v -9 2 -9
v 9 2 -9
v -11 2 -11
v 11 2 -11

# faces
f 3/1/1 2/1/1 1/1/1
f 4/1/1 2/1/1 3/1/1
f 7/2/1 6/2/1 5/2/1
f 8/2/1 6/2/1 7/2/1
f 11/2/1 10/2/1 9/2/1
f 12/2/1 10/2/1 11/2/1
f 13/2/2 14/2/2 15/2/2
f 15/2/2 14/2/2 16/2/2
f 17/2/2 18/2/2 19/2/2
f 19/2/2 18/2/2 20/2/2
f 21/1/2 22/1/2 23/1/2
f 23/1/2 22/1/2 24/1/2
f 27/1/3 26/1/3 25/1/3
f 28/1/3 26/1/3 27/1/3
f 31/2/3 30/2/3 29/2/3
f 32/2/3 30/2/3 31/2/3
f 35/2/3 34/2/3 33/2/3
f 36/2/3 34/2/3 35/2/3
f 37/2/4 38/2/4 39/2/4
f 39/2/4 38/2/4 40/2/4
f 41/2/4 42/2/4 43/2/4
f 43/2/4 42/2/4 44/2/4
f 45/1/4 46/1/4 47/1/4
f 47/1/4 46/1/4 48/1/4
f 51/1/5 50/1/5 49/1/5
f 52/1/5 50/1/5 51/1/5
f 53/1/5 51/1/5 49/1/5
f 53/3/5 52/3/5 51/3/5
f 54/1/5 50/1/5 52/1/5
f 54/3/5 52/3/5 53/3/5
f 55/1/5 53/1/5 49/1/5
f 55/1/5 54/1/5 53/1/5
f 56/1/5 50/1/5 54/1/5
f 56/1/5 54/1/5 55/1/5
f 57/1/6 58/1/6 59/1/6
f 59/1/6 58/1/6 60/1/6
f 61/3/6 62/3/6 63/3/6
f 63/3/6 62/3/6 64/3/6
f 57/1/6 59/1/6 65/1/6
f 60/1/6 58/1/6 66/1/6
f 57/1/6 65/1/6 67/1/6
f 65/1/6 66/1/6 67/1/6
f 66/1/6 58/1/6 68/1/6
f 67/1/6 66/1/6 68/1/6
f 69/2/6 70/2/6 71/2/6
f 71/2/6 70/2/6 72/2/6
f 69/2/6 71/2/6 73/2/6
f 72/2/6 70/2/6 74/2/6
f 69/2/6 73/2/6 75/2/6
f 73/2/6 74/2/6 75/2/6
f 74/2/6 70/2/6 76/2/6
f 75/2/6 74/2/6 76/2/6
