# MagicaVoxel @ Ephtracy

# material
mtllib ducat.mtl
usemtl palette

# normals
vn -1 0 0
vn 1 0 0
vn 0 0 1
vn 0 0 -1
vn 0 -1 0
vn 0 1 0

# texcoords
vt 0.0644531 0.5
vt 0.0683594 0.5
vt 0.341797 0.5

# verts
v -6 11 1
v -6 11 -0
v -6 13 1
v -6 13 -0
v -5 9 1
v -5 9 -0
v -5 11 1
v -5 11 -0
v -5 13 1
v -5 13 -0
v -5 15 1
v -5 15 -0
v -4 8 1
v -4 8 -0
v -4 9 1
v -4 9 -0
v -4 15 1
v -4 15 -0
v -4 16 1
v -4 16 -0
v -3 7 1
v -3 7 -0
v -3 8 1
v -3 8 -0
v -3 16 1
v -3 16 -0
v -3 17 1
v -3 17 -0
v -1 6 1
v -1 6 -0
v -1 7 1
v -1 7 -0
v -1 17 1
v -1 17 -0
v -1 18 1
v -1 18 -0
v 1 6 1
v 1 6 -0
v 1 7 1
v 1 7 -0
v 1 17 1
v 1 17 -0
v 1 18 1
v 1 18 -0
v 3 7 1
v 3 7 -0
v 3 8 1
v 3 8 -0
v 3 16 1
v 3 16 -0
v 3 17 1
v 3 17 -0
v 4 8 1
v 4 8 -0
v 4 9 1
v 4 9 -0
v 4 15 1
v 4 15 -0
v 4 16 1
v 4 16 -0
v 5 9 1
v 5 9 -0
v 5 11 1
v 5 11 -0
v 5 13 1
v 5 13 -0
v 5 15 1
v 5 15 -0
v 6 11 1
v 6 11 -0
v 6 13 1
v 6 13 -0
v -6 11 1
v -6 13 1
v -5 9 1
v -5 11 1
v -5 13 1
v -5 15 1
v -4 8 1
v -4 9 1
v -4 11 1
v -4 13 1
v -4 15 1
v -4 16 1
v -3 7 1
v -3 8 1
v -3 9 1
v -3 15 1
v -3 16 1
v -3 17 1
v -2 9 1
v -2 15 1
v -1 6 1
v -1 7 1
v -1 8 1
v -1 10 1
v -1 14 1
v -1 16 1
v -1 17 1
v -1 18 1
v 1 6 1
v 1 7 1
v 1 8 1
v 1 9 1
v 1 10 1
v 1 14 1
v 1 15 1
v 1 16 1
v 1 17 1
v 1 18 1
v 2 10 1
v 2 14 1
v 3 7 1
v 3 8 1
v 3 9 1
v 3 15 1
v 3 16 1
v 3 17 1
v 4 8 1
v 4 9 1
v 4 11 1
v 4 13 1
v 4 15 1
v 4 16 1
v 5 9 1
v 5 11 1
v 5 13 1
v 5 15 1
v 6 11 1
v 6 13 1
v -6 11 -0
v -6 13 -0
v -5 9 -0
v -5 11 -0
v -5 13 -0
v -5 15 -0
v -4 8 -0
v -4 9 -0
v -4 11 -0
v -4 13 -0
v -4 15 -0
v -4 16 -0
v -3 7 -0
v -3 8 -0
v -3 9 -0
v -3 15 -0
v -3 16 -0
v -3 17 -0
v -2 9 -0
v -2 15 -0
v -1 6 -0
v -1 7 -0
v -1 8 -0
v -1 10 -0
v -1 14 -0
v -1 16 -0
v -1 17 -0
v -1 18 -0
v 1 6 -0
v 1 7 -0
v 1 8 -0
v 1 9 -0
v 1 10 -0
v 1 14 -0
v 1 15 -0
v 1 16 -0
v 1 17 -0
v 1 18 -0
v 2 10 -0
v 2 14 -0
v 3 7 -0
v 3 8 -0
v 3 9 -0
v 3 15 -0
v 3 16 -0
v 3 17 -0
v 4 8 -0
v 4 9 -0
v 4 11 -0
v 4 13 -0
v 4 15 -0
v 4 16 -0
v 5 9 -0
v 5 11 -0
v 5 13 -0
v 5 15 -0
v 6 11 -0
v 6 13 -0
v -1 6 1
v 1 6 1
v -1 6 -0
v 1 6 -0
v -3 7 1
v -1 7 1
v 1 7 1
v 3 7 1
v -3 7 -0
v -1 7 -0
v 1 7 -0
v 3 7 -0
v -4 8 1
v -3 8 1
v 3 8 1
v 4 8 1
v -4 8 -0
v -3 8 -0
v 3 8 -0
v 4 8 -0
v -5 9 1
v -4 9 1
v 4 9 1
v 5 9 1
v -5 9 -0
v -4 9 -0
v 4 9 -0
v 5 9 -0
v -6 11 1
v -5 11 1
v 5 11 1
v 6 11 1
v -6 11 -0
v -5 11 -0
v 5 11 -0
v 6 11 -0
v -6 13 1
v -5 13 1
v 5 13 1
v 6 13 1
v -6 13 -0
v -5 13 -0
v 5 13 -0
v 6 13 -0
v -5 15 1
v -4 15 1
v 4 15 1
v 5 15 1
v -5 15 -0
v -4 15 -0
v 4 15 -0
v 5 15 -0
v -4 16 1
v -3 16 1
v 3 16 1
v 4 16 1
v -4 16 -0
v -3 16 -0
v 3 16 -0
v 4 16 -0
v -3 17 1
v -1 17 1
v 1 17 1
v 3 17 1
v -3 17 -0
v -1 17 -0
v 1 17 -0
v 3 17 -0
v -1 18 1
v 1 18 1
v -1 18 -0
v 1 18 -0

# faces
f 3/2/1 2/2/1 1/2/1
f 4/2/1 2/2/1 3/2/1
f 7/2/1 6/2/1 5/2/1
f 8/2/1 6/2/1 7/2/1
f 11/2/1 10/2/1 9/2/1
f 12/2/1 10/2/1 11/2/1
f 15/2/1 14/2/1 13/2/1
f 16/2/1 14/2/1 15/2/1
f 19/2/1 18/2/1 17/2/1
f 20/2/1 18/2/1 19/2/1
f 23/2/1 22/2/1 21/2/1
f 24/2/1 22/2/1 23/2/1
f 27/2/1 26/2/1 25/2/1
f 28/2/1 26/2/1 27/2/1
f 31/2/1 30/2/1 29/2/1
f 32/2/1 30/2/1 31/2/1
f 35/2/1 34/2/1 33/2/1
f 36/2/1 34/2/1 35/2/1
f 37/2/2 38/2/2 39/2/2
f 39/2/2 38/2/2 40/2/2
f 41/2/2 42/2/2 43/2/2
f 43/2/2 42/2/2 44/2/2
f 45/2/2 46/2/2 47/2/2
f 47/2/2 46/2/2 48/2/2
f 49/2/2 50/2/2 51/2/2
f 51/2/2 50/2/2 52/2/2
f 53/2/2 54/2/2 55/2/2
f 55/2/2 54/2/2 56/2/2
f 57/2/2 58/2/2 59/2/2
f 59/2/2 58/2/2 60/2/2
f 61/2/2 62/2/2 63/2/2
f 63/2/2 62/2/2 64/2/2
f 65/2/2 66/2/2 67/2/2
f 67/2/2 66/2/2 68/2/2
f 69/2/2 70/2/2 71/2/2
f 71/2/2 70/2/2 72/2/2
f 76/2/3 74/2/3 73/2/3
f 77/2/3 74/2/3 76/2/3
f 80/2/3 76/2/3 75/2/3
f 81/1/3 77/1/3 76/1/3
f 81/2/3 76/2/3 80/2/3
f 82/2/3 78/2/3 77/2/3
f 82/1/3 77/1/3 81/1/3
f 83/2/3 78/2/3 82/2/3
f 86/2/3 80/2/3 79/2/3
f 87/1/3 81/1/3 80/1/3
f 87/1/3 82/1/3 81/1/3
f 87/2/3 80/2/3 86/2/3
f 87/1/3 83/1/3 82/1/3
f 88/2/3 84/2/3 83/2/3
f 88/1/3 83/1/3 87/1/3
f 89/2/3 84/2/3 88/2/3
f 91/1/3 87/1/3 86/1/3
f 91/1/3 88/1/3 87/1/3
f 91/1/3 89/1/3 88/1/3
f 92/1/3 89/1/3 91/1/3
f 94/2/3 86/2/3 85/2/3
f 95/1/3 91/1/3 86/1/3
f 95/2/3 86/2/3 94/2/3
f 96/3/3 92/3/3 91/3/3
f 97/3/3 92/3/3 96/3/3
f 98/1/3 89/1/3 92/1/3
f 98/2/3 90/2/3 89/2/3
f 99/2/3 90/2/3 98/2/3
f 101/2/3 94/2/3 93/2/3
f 102/1/3 95/1/3 94/1/3
f 102/2/3 94/2/3 101/2/3
f 103/1/3 91/1/3 95/1/3
f 103/1/3 95/1/3 102/1/3
f 104/3/3 96/3/3 91/3/3
f 104/1/3 91/1/3 103/1/3
f 105/1/3 97/1/3 96/1/3
f 105/3/3 96/3/3 104/3/3
f 106/3/3 92/3/3 97/3/3
f 106/1/3 97/1/3 105/1/3
f 107/1/3 98/1/3 92/1/3
f 107/3/3 92/3/3 106/3/3
f 107/1/3 99/1/3 98/1/3
f 108/1/3 99/1/3 107/1/3
f 109/2/3 100/2/3 99/2/3
f 109/1/3 99/1/3 108/1/3
f 110/2/3 100/2/3 109/2/3
f 111/1/3 105/1/3 104/1/3
f 111/1/3 104/1/3 103/1/3
f 111/3/3 106/3/3 105/3/3
f 112/1/3 108/1/3 107/1/3
f 112/3/3 106/3/3 111/3/3
f 112/1/3 107/1/3 106/1/3
f 113/2/3 103/2/3 102/2/3
f 114/1/3 111/1/3 103/1/3
f 114/2/3 103/2/3 113/2/3
f 114/1/3 112/1/3 111/1/3
f 115/1/3 112/1/3 114/1/3
f 116/1/3 108/1/3 112/1/3
f 116/1/3 112/1/3 115/1/3
f 117/2/3 109/2/3 108/2/3
f 117/1/3 108/1/3 116/1/3
f 118/2/3 109/2/3 117/2/3
f 119/2/3 115/2/3 114/2/3
f 120/1/3 116/1/3 115/1/3
f 120/2/3 115/2/3 119/2/3
f 121/1/3 116/1/3 120/1/3
f 122/1/3 116/1/3 121/1/3
f 123/2/3 117/2/3 116/2/3
f 123/1/3 116/1/3 122/1/3
f 124/2/3 117/2/3 123/2/3
f 125/2/3 121/2/3 120/2/3
f 126/1/3 122/1/3 121/1/3
f 126/2/3 121/2/3 125/2/3
f 127/2/3 123/2/3 122/2/3
f 127/1/3 122/1/3 126/1/3
f 128/2/3 123/2/3 127/2/3
f 129/2/3 127/2/3 126/2/3
f 130/2/3 127/2/3 129/2/3
f 131/2/4 132/2/4 134/2/4
f 134/2/4 132/2/4 135/2/4
f 133/2/4 134/2/4 138/2/4
f 134/1/4 135/1/4 139/1/4
f 138/2/4 134/2/4 139/2/4
f 135/2/4 136/2/4 140/2/4
f 139/1/4 135/1/4 140/1/4
f 140/2/4 136/2/4 141/2/4
f 137/2/4 138/2/4 144/2/4
f 138/1/4 139/1/4 145/1/4
f 139/1/4 140/1/4 145/1/4
f 144/2/4 138/2/4 145/2/4
f 140/1/4 141/1/4 145/1/4
f 141/2/4 142/2/4 146/2/4
f 145/1/4 141/1/4 146/1/4
f 146/2/4 142/2/4 147/2/4
f 144/1/4 145/1/4 149/1/4
f 145/1/4 146/1/4 149/1/4
f 146/1/4 147/1/4 149/1/4
f 149/1/4 147/1/4 150/1/4
f 143/2/4 144/2/4 152/2/4
f 144/1/4 149/1/4 153/1/4
f 152/2/4 144/2/4 153/2/4
f 149/3/4 150/3/4 154/3/4
f 154/3/4 150/3/4 155/3/4
f 150/1/4 147/1/4 156/1/4
f 147/2/4 148/2/4 156/2/4
f 156/2/4 148/2/4 157/2/4
f 151/2/4 152/2/4 159/2/4
f 152/1/4 153/1/4 160/1/4
f 159/2/4 152/2/4 160/2/4
f 153/1/4 149/1/4 161/1/4
f 160/1/4 153/1/4 161/1/4
f 149/3/4 154/3/4 162/3/4
f 161/1/4 149/1/4 162/1/4
f 154/1/4 155/1/4 163/1/4
f 162/3/4 154/3/4 163/3/4
f 155/3/4 150/3/4 164/3/4
f 163/1/4 155/1/4 164/1/4
f 150/1/4 156/1/4 165/1/4
f 164/3/4 150/3/4 165/3/4
f 156/1/4 157/1/4 165/1/4
f 165/1/4 157/1/4 166/1/4
f 157/2/4 158/2/4 167/2/4
f 166/1/4 157/1/4 167/1/4
f 167/2/4 158/2/4 168/2/4
f 162/1/4 163/1/4 169/1/4
f 161/1/4 162/1/4 169/1/4
f 163/3/4 164/3/4 169/3/4
f 165/1/4 166/1/4 170/1/4
f 169/3/4 164/3/4 170/3/4
f 164/1/4 165/1/4 170/1/4
f 160/2/4 161/2/4 171/2/4
f 161/1/4 169/1/4 172/1/4
f 171/2/4 161/2/4 172/2/4
f 169/1/4 170/1/4 172/1/4
f 172/1/4 170/1/4 173/1/4
f 170/1/4 166/1/4 174/1/4
f 173/1/4 170/1/4 174/1/4
f 166/2/4 167/2/4 175/2/4
f 174/1/4 166/1/4 175/1/4
f 175/2/4 167/2/4 176/2/4
f 172/2/4 173/2/4 177/2/4
f 173/1/4 174/1/4 178/1/4
f 177/2/4 173/2/4 178/2/4
f 178/1/4 174/1/4 179/1/4
f 179/1/4 174/1/4 180/1/4
f 174/2/4 175/2/4 181/2/4
f 180/1/4 174/1/4 181/1/4
f 181/2/4 175/2/4 182/2/4
f 178/2/4 179/2/4 183/2/4
f 179/1/4 180/1/4 184/1/4
f 183/2/4 179/2/4 184/2/4
f 180/2/4 181/2/4 185/2/4
f 184/1/4 180/1/4 185/1/4
f 185/2/4 181/2/4 186/2/4
f 184/2/4 185/2/4 187/2/4
f 187/2/4 185/2/4 188/2/4
f 191/2/5 190/2/5 189/2/5
f 192/2/5 190/2/5 191/2/5
f 197/2/5 194/2/5 193/2/5
f 198/2/5 194/2/5 197/2/5
f 199/2/5 196/2/5 195/2/5
f 200/2/5 196/2/5 199/2/5
f 205/2/5 202/2/5 201/2/5
f 206/2/5 202/2/5 205/2/5
f 207/2/5 204/2/5 203/2/5
f 208/2/5 204/2/5 207/2/5
f 213/2/5 210/2/5 209/2/5
f 214/2/5 210/2/5 213/2/5
f 215/2/5 212/2/5 211/2/5
f 216/2/5 212/2/5 215/2/5
f 221/2/5 218/2/5 217/2/5
f 222/2/5 218/2/5 221/2/5
f 223/2/5 220/2/5 219/2/5
f 224/2/5 220/2/5 223/2/5
f 225/2/6 226/2/6 229/2/6
f 229/2/6 226/2/6 230/2/6
f 227/2/6 228/2/6 231/2/6
f 231/2/6 228/2/6 232/2/6
f 233/2/6 234/2/6 237/2/6
f 237/2/6 234/2/6 238/2/6
f 235/2/6 236/2/6 239/2/6
f 239/2/6 236/2/6 240/2/6
f 241/2/6 242/2/6 245/2/6
f 245/2/6 242/2/6 246/2/6
f 243/2/6 244/2/6 247/2/6
f 247/2/6 244/2/6 248/2/6
f 249/2/6 250/2/6 253/2/6
f 253/2/6 250/2/6 254/2/6
f 251/2/6 252/2/6 255/2/6
f 255/2/6 252/2/6 256/2/6
f 257/2/6 258/2/6 259/2/6
f 259/2/6 258/2/6 260/2/6
