# MagicaVoxel @ Ephtracy

# material
mtllib doors-03.mtl
usemtl palette

# normals
vn -1 0 0
vn 1 0 0
vn 0 0 1
vn 0 0 -1
vn 0 -1 0
vn 0 1 0

# texcoords
vt 0.216797 0.5
vt 0.970703 0.5
vt 0.994141 0.5

# verts
v -12 0 12
v -12 0 -12
v -12 24 12
v -12 24 -12
v -7 6 2
v -7 6 -2
v -7 7 1
v -7 7 -1
v -7 9 1
v -7 9 -1
v -7 10 2
v -7 10 -2
v -7 16 2
v -7 16 -2
v -7 17 1
v -7 17 -1
v -7 19 1
v -7 19 -1
v -7 20 2
v -7 20 -2
v 5 6 2
v 5 6 -2
v 5 7 1
v 5 7 -1
v 5 9 1
v 5 9 -1
v 5 10 2
v 5 10 -2
v 5 16 2
v 5 16 -2
v 5 17 1
v 5 17 -1
v 5 19 1
v 5 19 -1
v 5 20 2
v 5 20 -2
v 10 0 12
v 10 0 -12
v 10 7 1
v 10 7 -1
v 10 9 1
v 10 9 -1
v 10 17 1
v 10 17 -1
v 10 19 1
v 10 19 -1
v 10 24 12
v 10 24 -12
v -10 0 12
v -10 0 -12
v -10 7 1
v -10 7 -1
v -10 9 1
v -10 9 -1
v -10 17 1
v -10 17 -1
v -10 19 1
v -10 19 -1
v -10 24 12
v -10 24 -12
v -5 6 2
v -5 6 -2
v -5 7 1
v -5 7 -1
v -5 9 1
v -5 9 -1
v -5 10 2
v -5 10 -2
v -5 16 2
v -5 16 -2
v -5 17 1
v -5 17 -1
v -5 19 1
v -5 19 -1
v -5 20 2
v -5 20 -2
v 7 6 2
v 7 6 -2
v 7 7 1
v 7 7 -1
v 7 9 1
v 7 9 -1
v 7 10 2
v 7 10 -2
v 7 16 2
v 7 16 -2
v 7 17 1
v 7 17 -1
v 7 19 1
v 7 19 -1
v 7 20 2
v 7 20 -2
v 12 0 12
v 12 0 -12
v 12 24 12
v 12 24 -12
v -12 0 12
v -12 24 12
v -10 0 12
v -10 24 12
v 10 0 12
v 10 24 12
v 12 0 12
v 12 24 12
v -7 6 2
v -7 10 2
v -7 16 2
v -7 20 2
v -5 6 2
v -5 10 2
v -5 16 2
v -5 20 2
v 5 6 2
v 5 10 2
v 5 16 2
v 5 20 2
v 7 6 2
v 7 10 2
v 7 16 2
v 7 20 2
v -10 7 1
v -10 9 1
v -10 17 1
v -10 19 1
v -7 7 1
v -7 9 1
v -7 17 1
v -7 19 1
v 7 7 1
v 7 9 1
v 7 17 1
v 7 19 1
v 10 7 1
v 10 9 1
v 10 17 1
v 10 19 1
v -10 7 -1
v -10 9 -1
v -10 17 -1
v -10 19 -1
v -7 7 -1
v -7 9 -1
v -7 17 -1
v -7 19 -1
v 7 7 -1
v 7 9 -1
v 7 17 -1
v 7 19 -1
v 10 7 -1
v 10 9 -1
v 10 17 -1
v 10 19 -1
v -7 6 -2
v -7 10 -2
v -7 16 -2
v -7 20 -2
v -5 6 -2
v -5 10 -2
v -5 16 -2
v -5 20 -2
v 5 6 -2
v 5 10 -2
v 5 16 -2
v 5 20 -2
v 7 6 -2
v 7 10 -2
v 7 16 -2
v 7 20 -2
v -12 0 -12
v -12 24 -12
v -10 0 -12
v -10 24 -12
v 10 0 -12
v 10 24 -12
v 12 0 -12
v 12 24 -12
v -12 0 12
v -10 0 12
v 10 0 12
v 12 0 12
v -12 0 -12
v -10 0 -12
v 10 0 -12
v 12 0 -12
v -7 6 2
v -5 6 2
v 5 6 2
v 7 6 2
v -7 6 -2
v -5 6 -2
v 5 6 -2
v 7 6 -2
v -10 7 1
v -7 7 1
v 7 7 1
v 10 7 1
v -10 7 -1
v -7 7 -1
v 7 7 -1
v 10 7 -1
v -7 16 2
v -5 16 2
v 5 16 2
v 7 16 2
v -7 16 -2
v -5 16 -2
v 5 16 -2
v 7 16 -2
v -10 17 1
v -7 17 1
v 7 17 1
v 10 17 1
v -10 17 -1
v -7 17 -1
v 7 17 -1
v 10 17 -1
v -10 9 1
v -7 9 1
v 7 9 1
v 10 9 1
v -10 9 -1
v -7 9 -1
v 7 9 -1
v 10 9 -1
v -7 10 2
v -5 10 2
v 5 10 2
v 7 10 2
v -7 10 -2
v -5 10 -2
v 5 10 -2
v 7 10 -2
v -10 19 1
v -7 19 1
v 7 19 1
v 10 19 1
v -10 19 -1
v -7 19 -1
v 7 19 -1
v 10 19 -1
v -7 20 2
v -5 20 2
v 5 20 2
v 7 20 2
v -7 20 -2
v -5 20 -2
v 5 20 -2
v 7 20 -2
v -12 24 12
v -10 24 12
v 10 24 12
v 12 24 12
v -12 24 -12
v -10 24 -12
v 10 24 -12
v 12 24 -12

# faces
f 3/1/1 2/1/1 1/1/1
f 4/1/1 2/1/1 3/1/1
f 7/3/1 6/3/1 5/3/1
f 8/3/1 6/3/1 7/3/1
f 9/3/1 7/3/1 5/3/1
f 10/3/1 6/3/1 8/3/1
f 11/3/1 9/3/1 5/3/1
f 11/3/1 10/3/1 9/3/1
f 12/3/1 6/3/1 10/3/1
f 12/3/1 10/3/1 11/3/1
f 15/3/1 14/3/1 13/3/1
f 16/3/1 14/3/1 15/3/1
f 17/3/1 15/3/1 13/3/1
f 18/3/1 14/3/1 16/3/1
f 19/3/1 17/3/1 13/3/1
f 19/3/1 18/3/1 17/3/1
f 20/3/1 14/3/1 18/3/1
f 20/3/1 18/3/1 19/3/1
f 23/3/1 22/3/1 21/3/1
f 24/3/1 22/3/1 23/3/1
f 25/3/1 23/3/1 21/3/1
f 25/2/1 24/2/1 23/2/1
f 26/3/1 22/3/1 24/3/1
f 26/2/1 24/2/1 25/2/1
f 27/3/1 25/3/1 21/3/1
f 27/3/1 26/3/1 25/3/1
f 28/3/1 22/3/1 26/3/1
f 28/3/1 26/3/1 27/3/1
f 31/3/1 30/3/1 29/3/1
f 32/3/1 30/3/1 31/3/1
f 33/3/1 31/3/1 29/3/1
f 33/2/1 32/2/1 31/2/1
f 34/3/1 30/3/1 32/3/1
f 34/2/1 32/2/1 33/2/1
f 35/3/1 33/3/1 29/3/1
f 35/3/1 34/3/1 33/3/1
f 36/3/1 30/3/1 34/3/1
f 36/3/1 34/3/1 35/3/1
f 39/1/1 38/1/1 37/1/1
f 40/1/1 38/1/1 39/1/1
f 41/1/1 39/1/1 37/1/1
f 42/1/1 38/1/1 40/1/1
f 43/1/1 41/1/1 37/1/1
f 43/1/1 42/1/1 41/1/1
f 44/1/1 38/1/1 42/1/1
f 44/1/1 42/1/1 43/1/1
f 45/1/1 43/1/1 37/1/1
f 46/1/1 38/1/1 44/1/1
f 47/1/1 45/1/1 37/1/1
f 47/1/1 46/1/1 45/1/1
f 48/1/1 38/1/1 46/1/1
f 48/1/1 46/1/1 47/1/1
f 49/1/2 50/1/2 51/1/2
f 51/1/2 50/1/2 52/1/2
f 49/1/2 51/1/2 53/1/2
f 52/1/2 50/1/2 54/1/2
f 49/1/2 53/1/2 55/1/2
f 53/1/2 54/1/2 55/1/2
f 54/1/2 50/1/2 56/1/2
f 55/1/2 54/1/2 56/1/2
f 49/1/2 55/1/2 57/1/2
f 56/1/2 50/1/2 58/1/2
f 49/1/2 57/1/2 59/1/2
f 57/1/2 58/1/2 59/1/2
f 58/1/2 50/1/2 60/1/2
f 59/1/2 58/1/2 60/1/2
f 61/3/2 62/3/2 63/3/2
f 63/3/2 62/3/2 64/3/2
f 61/3/2 63/3/2 65/3/2
f 63/2/2 64/2/2 65/2/2
f 64/3/2 62/3/2 66/3/2
f 65/2/2 64/2/2 66/2/2
f 61/3/2 65/3/2 67/3/2
f 65/3/2 66/3/2 67/3/2
f 66/3/2 62/3/2 68/3/2
f 67/3/2 66/3/2 68/3/2
f 69/3/2 70/3/2 71/3/2
f 71/3/2 70/3/2 72/3/2
f 69/3/2 71/3/2 73/3/2
f 71/2/2 72/2/2 73/2/2
f 72/3/2 70/3/2 74/3/2
f 73/2/2 72/2/2 74/2/2
f 69/3/2 73/3/2 75/3/2
f 73/3/2 74/3/2 75/3/2
f 74/3/2 70/3/2 76/3/2
f 75/3/2 74/3/2 76/3/2
f 77/3/2 78/3/2 79/3/2
f 79/3/2 78/3/2 80/3/2
f 77/3/2 79/3/2 81/3/2
f 80/3/2 78/3/2 82/3/2
f 77/3/2 81/3/2 83/3/2
f 81/3/2 82/3/2 83/3/2
f 82/3/2 78/3/2 84/3/2
f 83/3/2 82/3/2 84/3/2
f 85/3/2 86/3/2 87/3/2
f 87/3/2 86/3/2 88/3/2
f 85/3/2 87/3/2 89/3/2
f 88/3/2 86/3/2 90/3/2
f 85/3/2 89/3/2 91/3/2
f 89/3/2 90/3/2 91/3/2
f 90/3/2 86/3/2 92/3/2
f 91/3/2 90/3/2 92/3/2
f 93/1/2 94/1/2 95/1/2
f 95/1/2 94/1/2 96/1/2
f 99/1/3 98/1/3 97/1/3
f 100/1/3 98/1/3 99/1/3
f 103/1/3 102/1/3 101/1/3
f 104/1/3 102/1/3 103/1/3
f 109/3/3 106/3/3 105/3/3
f 110/3/3 106/3/3 109/3/3
f 111/3/3 108/3/3 107/3/3
f 112/3/3 108/3/3 111/3/3
f 117/3/3 114/3/3 113/3/3
f 118/3/3 114/3/3 117/3/3
f 119/3/3 116/3/3 115/3/3
f 120/3/3 116/3/3 119/3/3
f 125/2/3 122/2/3 121/2/3
f 126/2/3 122/2/3 125/2/3
f 127/2/3 124/2/3 123/2/3
f 128/2/3 124/2/3 127/2/3
f 133/2/3 130/2/3 129/2/3
f 134/2/3 130/2/3 133/2/3
f 135/2/3 132/2/3 131/2/3
f 136/2/3 132/2/3 135/2/3
f 137/2/4 138/2/4 141/2/4
f 141/2/4 138/2/4 142/2/4
f 139/2/4 140/2/4 143/2/4
f 143/2/4 140/2/4 144/2/4
f 145/2/4 146/2/4 149/2/4
f 149/2/4 146/2/4 150/2/4
f 147/2/4 148/2/4 151/2/4
f 151/2/4 148/2/4 152/2/4
f 153/3/4 154/3/4 157/3/4
f 157/3/4 154/3/4 158/3/4
f 155/3/4 156/3/4 159/3/4
f 159/3/4 156/3/4 160/3/4
f 161/3/4 162/3/4 165/3/4
f 165/3/4 162/3/4 166/3/4
f 163/3/4 164/3/4 167/3/4
f 167/3/4 164/3/4 168/3/4
f 169/1/4 170/1/4 171/1/4
f 171/1/4 170/1/4 172/1/4
f 173/1/4 174/1/4 175/1/4
f 175/1/4 174/1/4 176/1/4
f 181/1/5 178/1/5 177/1/5
f 182/1/5 178/1/5 181/1/5
f 183/1/5 180/1/5 179/1/5
f 184/1/5 180/1/5 183/1/5
f 189/3/5 186/3/5 185/3/5
f 190/3/5 186/3/5 189/3/5
f 191/3/5 188/3/5 187/3/5
f 192/3/5 188/3/5 191/3/5
f 197/2/5 194/2/5 193/2/5
f 198/2/5 194/2/5 197/2/5
f 199/2/5 196/2/5 195/2/5
f 200/2/5 196/2/5 199/2/5
f 205/3/5 202/3/5 201/3/5
f 206/3/5 202/3/5 205/3/5
f 207/3/5 204/3/5 203/3/5
f 208/3/5 204/3/5 207/3/5
f 213/2/5 210/2/5 209/2/5
f 214/2/5 210/2/5 213/2/5
f 215/2/5 212/2/5 211/2/5
f 216/2/5 212/2/5 215/2/5
f 217/2/6 218/2/6 221/2/6
f 221/2/6 218/2/6 222/2/6
f 219/2/6 220/2/6 223/2/6
f 223/2/6 220/2/6 224/2/6
f 225/3/6 226/3/6 229/3/6
f 229/3/6 226/3/6 230/3/6
f 227/3/6 228/3/6 231/3/6
f 231/3/6 228/3/6 232/3/6
f 233/2/6 234/2/6 237/2/6
f 237/2/6 234/2/6 238/2/6
f 235/2/6 236/2/6 239/2/6
f 239/2/6 236/2/6 240/2/6
f 241/3/6 242/3/6 245/3/6
f 245/3/6 242/3/6 246/3/6
f 243/3/6 244/3/6 247/3/6
f 247/3/6 244/3/6 248/3/6
f 249/1/6 250/1/6 253/1/6
f 253/1/6 250/1/6 254/1/6
f 251/1/6 252/1/6 255/1/6
f 255/1/6 252/1/6 256/1/6
