# MagicaVoxel @ Ephtracy

# material
mtllib ceiling_lamp-construction.mtl
usemtl palette

# normals
vn -1 0 0
vn 1 0 0
vn 0 0 1
vn 0 0 -1
vn 0 -1 0
vn 0 1 0

# texcoords
vt 0.0332031 0.5
vt 0.0488281 0.5
vt 0.431641 0.5
vt 0.466797 0.5

# verts
v -6 18 2
v -6 18 1
v -6 18 -1
v -6 18 -2
v -6 19 2
v -6 19 1
v -6 19 -1
v -6 19 -2
v -6 21 2
v -6 21 1
v -6 21 -1
v -6 21 -2
v -4 18 3
v -4 18 1
v -4 18 -1
v -4 18 -3
v -4 19 3
v -4 19 1
v -4 19 -1
v -4 19 -3
v -3 18 4
v -3 18 3
v -3 18 -3
v -3 18 -4
v -3 19 4
v -3 19 3
v -3 19 -3
v -3 19 -4
v -3 20 4
v -3 20 3
v -3 20 -3
v -3 20 -4
v -2 18 6
v -2 18 5
v -2 18 -5
v -2 18 -6
v -2 19 6
v -2 19 5
v -2 19 -5
v -2 19 -6
v -2 20 3
v -2 20 2
v -2 20 -2
v -2 20 -3
v -2 21 6
v -2 21 5
v -2 21 3
v -2 21 2
v -2 21 1
v -2 21 -1
v -2 21 -2
v -2 21 -3
v -2 21 -5
v -2 21 -6
v -2 22 2
v -2 22 1
v -2 22 -1
v -2 22 -2
v -1 18 5
v -1 18 4
v -1 18 -4
v -1 18 -5
v -1 19 5
v -1 19 4
v -1 19 -4
v -1 19 -5
v -1 22 1
v -1 22 -1
v -1 23 1
v -1 23 -1
v 1 18 4
v 1 18 3
v 1 18 -3
v 1 18 -4
v 1 19 6
v 1 19 5
v 1 19 4
v 1 19 3
v 1 19 -3
v 1 19 -4
v 1 19 -5
v 1 19 -6
v 1 20 3
v 1 20 2
v 1 20 -2
v 1 20 -3
v 1 21 6
v 1 21 5
v 1 21 3
v 1 21 2
v 1 21 1
v 1 21 -1
v 1 21 -2
v 1 21 -3
v 1 21 -5
v 1 21 -6
v 1 22 2
v 1 22 1
v 1 22 -1
v 1 22 -2
v 2 19 4
v 2 19 3
v 2 19 -3
v 2 19 -4
v 2 20 4
v 2 20 3
v 2 20 -3
v 2 20 -4
v 3 18 3
v 3 18 1
v 3 18 -1
v 3 18 -3
v 3 19 3
v 3 19 1
v 3 19 -1
v 3 19 -3
v 4 18 1
v 4 18 -1
v 4 19 1
v 4 19 -1
v 5 18 2
v 5 18 1
v 5 18 -1
v 5 18 -2
v 5 19 2
v 5 19 1
v 5 19 -1
v 5 19 -2
v 5 21 2
v 5 21 1
v 5 21 -1
v 5 21 -2
v -5 18 2
v -5 18 1
v -5 18 -1
v -5 18 -2
v -5 19 2
v -5 19 1
v -5 19 -1
v -5 19 -2
v -5 21 2
v -5 21 1
v -5 21 -1
v -5 21 -2
v -4 18 1
v -4 18 -1
v -4 19 1
v -4 19 -1
v -3 18 3
v -3 18 1
v -3 18 -1
v -3 18 -3
v -3 19 3
v -3 19 1
v -3 19 -1
v -3 19 -3
v -2 19 4
v -2 19 3
v -2 19 -3
v -2 19 -4
v -2 20 4
v -2 20 3
v -2 20 -3
v -2 20 -4
v -1 18 4
v -1 18 3
v -1 18 -3
v -1 18 -4
v -1 19 6
v -1 19 5
v -1 19 4
v -1 19 3
v -1 19 -3
v -1 19 -4
v -1 19 -5
v -1 19 -6
v -1 20 3
v -1 20 2
v -1 20 -2
v -1 20 -3
v -1 21 6
v -1 21 5
v -1 21 3
v -1 21 2
v -1 21 1
v -1 21 -1
v -1 21 -2
v -1 21 -3
v -1 21 -5
v -1 21 -6
v -1 22 2
v -1 22 1
v -1 22 -1
v -1 22 -2
v 1 18 5
v 1 18 4
v 1 18 -4
v 1 18 -5
v 1 19 5
v 1 19 4
v 1 19 -4
v 1 19 -5
v 1 22 1
v 1 22 -1
v 1 23 1
v 1 23 -1
v 2 18 6
v 2 18 5
v 2 18 -5
v 2 18 -6
v 2 19 6
v 2 19 5
v 2 19 -5
v 2 19 -6
v 2 20 3
v 2 20 2
v 2 20 -2
v 2 20 -3
v 2 21 6
v 2 21 5
v 2 21 3
v 2 21 2
v 2 21 1
v 2 21 -1
v 2 21 -2
v 2 21 -3
v 2 21 -5
v 2 21 -6
v 2 22 2
v 2 22 1
v 2 22 -1
v 2 22 -2
v 3 18 4
v 3 18 3
v 3 18 -3
v 3 18 -4
v 3 19 4
v 3 19 3
v 3 19 -3
v 3 19 -4
v 3 20 4
v 3 20 3
v 3 20 -3
v 3 20 -4
v 4 18 3
v 4 18 1
v 4 18 -1
v 4 18 -3
v 4 19 3
v 4 19 1
v 4 19 -1
v 4 19 -3
v 6 18 2
v 6 18 1
v 6 18 -1
v 6 18 -2
v 6 19 2
v 6 19 1
v 6 19 -1
v 6 19 -2
v 6 21 2
v 6 21 1
v 6 21 -1
v 6 21 -2
v -2 18 6
v -2 19 6
v -2 21 6
v -1 18 6
v -1 19 6
v -1 21 6
v 1 18 6
v 1 19 6
v 1 21 6
v 2 18 6
v 2 19 6
v 2 21 6
v -3 18 4
v -3 19 4
v -3 20 4
v -2 19 4
v -2 20 4
v -1 18 4
v -1 19 4
v 1 18 4
v 1 19 4
v 2 19 4
v 2 20 4
v 3 18 4
v 3 19 4
v 3 20 4
v -4 18 3
v -4 19 3
v -3 18 3
v -3 19 3
v -2 20 3
v -2 21 3
v -1 20 3
v -1 21 3
v 1 20 3
v 1 21 3
v 2 20 3
v 2 21 3
v 3 18 3
v 3 19 3
v 4 18 3
v 4 19 3
v -6 18 2
v -6 19 2
v -6 21 2
v -5 18 2
v -5 19 2
v -5 21 2
v -2 21 2
v -2 22 2
v -1 21 2
v -1 22 2
v 1 21 2
v 1 22 2
v 2 21 2
v 2 22 2
v 5 18 2
v 5 19 2
v 5 21 2
v 6 18 2
v 6 19 2
v 6 21 2
v -5 18 1
v -5 19 1
v -4 18 1
v -4 19 1
v -1 22 1
v -1 23 1
v 1 22 1
v 1 23 1
v 4 18 1
v 4 19 1
v 5 18 1
v 5 19 1
v -6 19 -1
v -6 21 -1
v -5 19 -1
v -5 21 -1
v -4 18 -1
v -4 19 -1
v -3 18 -1
v -3 19 -1
v -2 21 -1
v -2 22 -1
v -1 21 -1
v -1 22 -1
v 1 21 -1
v 1 22 -1
v 2 21 -1
v 2 22 -1
v 3 18 -1
v 3 19 -1
v 4 18 -1
v 4 19 -1
v 5 19 -1
v 5 21 -1
v 6 19 -1
v 6 21 -1
v -2 20 -2
v -2 21 -2
v -1 20 -2
v -1 21 -2
v 1 20 -2
v 1 21 -2
v 2 20 -2
v 2 21 -2
v -3 18 -3
v -3 19 -3
v -3 20 -3
v -2 19 -3
v -2 20 -3
v -1 18 -3
v -1 19 -3
v 1 18 -3
v 1 19 -3
v 2 19 -3
v 2 20 -3
v 3 18 -3
v 3 19 -3
v 3 20 -3
v -1 18 -4
v -1 19 -4
v 1 18 -4
v 1 19 -4
v -2 18 -5
v -2 19 -5
v -2 21 -5
v -1 18 -5
v -1 19 -5
v -1 21 -5
v 1 18 -5
v 1 19 -5
v 1 21 -5
v 2 18 -5
v 2 19 -5
v 2 21 -5
v -2 18 5
v -2 19 5
v -2 21 5
v -1 18 5
v -1 19 5
v -1 21 5
v 1 18 5
v 1 19 5
v 1 21 5
v 2 18 5
v 2 19 5
v 2 21 5
v -1 18 4
v -1 19 4
v 1 18 4
v 1 19 4
v -3 18 3
v -3 19 3
v -3 20 3
v -2 19 3
v -2 20 3
v -1 18 3
v -1 19 3
v 1 18 3
v 1 19 3
v 2 19 3
v 2 20 3
v 3 18 3
v 3 19 3
v 3 20 3
v -2 20 2
v -2 21 2
v -1 20 2
v -1 21 2
v 1 20 2
v 1 21 2
v 2 20 2
v 2 21 2
v -6 19 1
v -6 21 1
v -5 19 1
v -5 21 1
v -4 18 1
v -4 19 1
v -3 18 1
v -3 19 1
v -2 21 1
v -2 22 1
v -1 21 1
v -1 22 1
v 1 21 1
v 1 22 1
v 2 21 1
v 2 22 1
v 3 18 1
v 3 19 1
v 4 18 1
v 4 19 1
v 5 19 1
v 5 21 1
v 6 19 1
v 6 21 1
v -5 18 -1
v -5 19 -1
v -4 18 -1
v -4 19 -1
v -1 22 -1
v -1 23 -1
v 1 22 -1
v 1 23 -1
v 4 18 -1
v 4 19 -1
v 5 18 -1
v 5 19 -1
v -6 18 -2
v -6 19 -2
v -6 21 -2
v -5 18 -2
v -5 19 -2
v -5 21 -2
v -2 21 -2
v -2 22 -2
v -1 21 -2
v -1 22 -2
v 1 21 -2
v 1 22 -2
v 2 21 -2
v 2 22 -2
v 5 18 -2
v 5 19 -2
v 5 21 -2
v 6 18 -2
v 6 19 -2
v 6 21 -2
v -4 18 -3
v -4 19 -3
v -3 18 -3
v -3 19 -3
v -2 20 -3
v -2 21 -3
v -1 20 -3
v -1 21 -3
v 1 20 -3
v 1 21 -3
v 2 20 -3
v 2 21 -3
v 3 18 -3
v 3 19 -3
v 4 18 -3
v 4 19 -3
v -3 18 -4
v -3 19 -4
v -3 20 -4
v -2 19 -4
v -2 20 -4
v -1 18 -4
v -1 19 -4
v 1 18 -4
v 1 19 -4
v 2 19 -4
v 2 20 -4
v 3 18 -4
v 3 19 -4
v 3 20 -4
v -2 18 -6
v -2 19 -6
v -2 21 -6
v -1 18 -6
v -1 19 -6
v -1 21 -6
v 1 18 -6
v 1 19 -6
v 1 21 -6
v 2 18 -6
v 2 19 -6
v 2 21 -6
v -2 18 6
v -1 18 6
v 1 18 6
v 2 18 6
v -2 18 5
v -1 18 5
v 1 18 5
v 2 18 5
v -3 18 4
v -1 18 4
v 1 18 4
v 3 18 4
v -4 18 3
v -3 18 3
v -1 18 3
v 1 18 3
v 3 18 3
v 4 18 3
v -6 18 2
v -5 18 2
v 5 18 2
v 6 18 2
v -6 18 1
v -5 18 1
v -4 18 1
v -3 18 1
v 3 18 1
v 4 18 1
v 5 18 1
v 6 18 1
v -6 18 -1
v -5 18 -1
v -4 18 -1
v -3 18 -1
v 3 18 -1
v 4 18 -1
v 5 18 -1
v 6 18 -1
v -6 18 -2
v -5 18 -2
v 5 18 -2
v 6 18 -2
v -4 18 -3
v -3 18 -3
v -1 18 -3
v 1 18 -3
v 3 18 -3
v 4 18 -3
v -3 18 -4
v -1 18 -4
v 1 18 -4
v 3 18 -4
v -2 18 -5
v -1 18 -5
v 1 18 -5
v 2 18 -5
v -2 18 -6
v -1 18 -6
v 1 18 -6
v 2 18 -6
v -2 20 3
v -1 20 3
v 1 20 3
v 2 20 3
v -2 20 2
v -1 20 2
v 1 20 2
v 2 20 2
v -2 20 -2
v -1 20 -2
v 1 20 -2
v 2 20 -2
v -2 20 -3
v -1 20 -3
v 1 20 -3
v 2 20 -3
v -2 21 2
v -1 21 2
v 1 21 2
v 2 21 2
v -2 21 1
v -1 21 1
v 1 21 1
v 2 21 1
v -2 21 -1
v -1 21 -1
v 1 21 -1
v 2 21 -1
v -2 21 -2
v -1 21 -2
v 1 21 -2
v 2 21 -2
v -1 22 1
v 1 22 1
v -1 22 -1
v 1 22 -1
v -1 19 6
v 1 19 6
v -1 19 5
v 1 19 5
v -2 19 4
v -1 19 4
v 1 19 4
v 2 19 4
v -4 19 3
v -3 19 3
v -2 19 3
v -1 19 3
v 1 19 3
v 2 19 3
v 3 19 3
v 4 19 3
v -6 19 1
v -5 19 1
v -4 19 1
v -3 19 1
v 3 19 1
v 4 19 1
v 5 19 1
v 6 19 1
v -6 19 -1
v -5 19 -1
v -4 19 -1
v -3 19 -1
v 3 19 -1
v 4 19 -1
v 5 19 -1
v 6 19 -1
v -4 19 -3
v -3 19 -3
v -2 19 -3
v -1 19 -3
v 1 19 -3
v 2 19 -3
v 3 19 -3
v 4 19 -3
v -2 19 -4
v -1 19 -4
v 1 19 -4
v 2 19 -4
v -1 19 -5
v 1 19 -5
v -1 19 -6
v 1 19 -6
v -3 20 4
v -2 20 4
v 2 20 4
v 3 20 4
v -3 20 3
v -2 20 3
v 2 20 3
v 3 20 3
v -3 20 -3
v -2 20 -3
v 2 20 -3
v 3 20 -3
v -3 20 -4
v -2 20 -4
v 2 20 -4
v 3 20 -4
v -2 21 6
v -1 21 6
v 1 21 6
v 2 21 6
v -2 21 5
v -1 21 5
v 1 21 5
v 2 21 5
v -2 21 3
v -1 21 3
v 1 21 3
v 2 21 3
v -6 21 2
v -5 21 2
v -2 21 2
v -1 21 2
v 1 21 2
v 2 21 2
v 5 21 2
v 6 21 2
v -6 21 1
v -5 21 1
v 5 21 1
v 6 21 1
v -6 21 -1
v -5 21 -1
v 5 21 -1
v 6 21 -1
v -6 21 -2
v -5 21 -2
v -2 21 -2
v -1 21 -2
v 1 21 -2
v 2 21 -2
v 5 21 -2
v 6 21 -2
v -2 21 -3
v -1 21 -3
v 1 21 -3
v 2 21 -3
v -2 21 -5
v -1 21 -5
v 1 21 -5
v 2 21 -5
v -2 21 -6
v -1 21 -6
v 1 21 -6
v 2 21 -6
v -2 22 2
v -1 22 2
v 1 22 2
v 2 22 2
v -2 22 1
v -1 22 1
v 1 22 1
v 2 22 1
v -2 22 -1
v -1 22 -1
v 1 22 -1
v 2 22 -1
v -2 22 -2
v -1 22 -2
v 1 22 -2
v 2 22 -2
v -1 23 1
v 1 23 1
v -1 23 -1
v 1 23 -1

# faces
f 5/2/1 2/2/1 1/2/1
f 6/3/1 3/3/1 2/3/1
f 6/2/1 2/2/1 5/2/1
f 7/2/1 4/2/1 3/2/1
f 7/3/1 3/3/1 6/3/1
f 8/2/1 4/2/1 7/2/1
f 9/4/1 6/4/1 5/4/1
f 10/4/1 6/4/1 9/4/1
f 11/4/1 8/4/1 7/4/1
f 12/4/1 8/4/1 11/4/1
f 17/3/1 14/3/1 13/3/1
f 18/3/1 14/3/1 17/3/1
f 19/3/1 16/3/1 15/3/1
f 20/3/1 16/3/1 19/3/1
f 25/3/1 22/3/1 21/3/1
f 26/3/1 22/3/1 25/3/1
f 27/3/1 24/3/1 23/3/1
f 28/3/1 24/3/1 27/3/1
f 29/1/1 26/1/1 25/1/1
f 30/1/1 26/1/1 29/1/1
f 31/1/1 28/1/1 27/1/1
f 32/1/1 28/1/1 31/1/1
f 37/2/1 34/2/1 33/2/1
f 38/2/1 34/2/1 37/2/1
f 39/2/1 36/2/1 35/2/1
f 40/2/1 36/2/1 39/2/1
f 45/4/1 38/4/1 37/4/1
f 46/4/1 38/4/1 45/4/1
f 47/1/1 42/1/1 41/1/1
f 48/1/1 42/1/1 47/1/1
f 51/1/1 44/1/1 43/1/1
f 52/1/1 44/1/1 51/1/1
f 53/4/1 40/4/1 39/4/1
f 54/4/1 40/4/1 53/4/1
f 55/1/1 49/1/1 48/1/1
f 56/1/1 49/1/1 55/1/1
f 57/1/1 51/1/1 50/1/1
f 58/1/1 51/1/1 57/1/1
f 63/3/1 60/3/1 59/3/1
f 64/3/1 60/3/1 63/3/1
f 65/3/1 62/3/1 61/3/1
f 66/3/1 62/3/1 65/3/1
f 69/1/1 68/1/1 67/1/1
f 70/1/1 68/1/1 69/1/1
f 77/3/1 72/3/1 71/3/1
f 78/3/1 72/3/1 77/3/1
f 79/3/1 74/3/1 73/3/1
f 80/3/1 74/3/1 79/3/1
f 87/4/1 76/4/1 75/4/1
f 88/4/1 76/4/1 87/4/1
f 89/1/1 84/1/1 83/1/1
f 90/1/1 84/1/1 89/1/1
f 93/1/1 86/1/1 85/1/1
f 94/1/1 86/1/1 93/1/1
f 95/4/1 82/4/1 81/4/1
f 96/4/1 82/4/1 95/4/1
f 97/1/1 91/1/1 90/1/1
f 98/1/1 91/1/1 97/1/1
f 99/1/1 93/1/1 92/1/1
f 100/1/1 93/1/1 99/1/1
f 105/1/1 102/1/1 101/1/1
f 106/1/1 102/1/1 105/1/1
f 107/1/1 104/1/1 103/1/1
f 108/1/1 104/1/1 107/1/1
f 113/3/1 110/3/1 109/3/1
f 114/3/1 110/3/1 113/3/1
f 115/3/1 112/3/1 111/3/1
f 116/3/1 112/3/1 115/3/1
f 119/3/1 118/3/1 117/3/1
f 120/3/1 118/3/1 119/3/1
f 125/2/1 122/2/1 121/2/1
f 126/2/1 122/2/1 125/2/1
f 127/2/1 124/2/1 123/2/1
f 128/2/1 124/2/1 127/2/1
f 129/4/1 126/4/1 125/4/1
f 130/4/1 126/4/1 129/4/1
f 131/4/1 128/4/1 127/4/1
f 132/4/1 128/4/1 131/4/1
f 133/2/2 134/2/2 137/2/2
f 137/2/2 134/2/2 138/2/2
f 135/2/2 136/2/2 139/2/2
f 139/2/2 136/2/2 140/2/2
f 137/4/2 138/4/2 141/4/2
f 141/4/2 138/4/2 142/4/2
f 139/4/2 140/4/2 143/4/2
f 143/4/2 140/4/2 144/4/2
f 145/3/2 146/3/2 147/3/2
f 147/3/2 146/3/2 148/3/2
f 149/3/2 150/3/2 153/3/2
f 153/3/2 150/3/2 154/3/2
f 151/3/2 152/3/2 155/3/2
f 155/3/2 152/3/2 156/3/2
f 157/1/2 158/1/2 161/1/2
f 161/1/2 158/1/2 162/1/2
f 159/1/2 160/1/2 163/1/2
f 163/1/2 160/1/2 164/1/2
f 165/3/2 166/3/2 171/3/2
f 171/3/2 166/3/2 172/3/2
f 167/3/2 168/3/2 173/3/2
f 173/3/2 168/3/2 174/3/2
f 169/4/2 170/4/2 181/4/2
f 181/4/2 170/4/2 182/4/2
f 177/1/2 178/1/2 183/1/2
f 183/1/2 178/1/2 184/1/2
f 179/1/2 180/1/2 187/1/2
f 187/1/2 180/1/2 188/1/2
f 175/4/2 176/4/2 189/4/2
f 189/4/2 176/4/2 190/4/2
f 184/1/2 185/1/2 191/1/2
f 191/1/2 185/1/2 192/1/2
f 186/1/2 187/1/2 193/1/2
f 193/1/2 187/1/2 194/1/2
f 195/3/2 196/3/2 199/3/2
f 199/3/2 196/3/2 200/3/2
f 197/3/2 198/3/2 201/3/2
f 201/3/2 198/3/2 202/3/2
f 203/1/2 204/1/2 205/1/2
f 205/1/2 204/1/2 206/1/2
f 207/2/2 208/2/2 211/2/2
f 211/2/2 208/2/2 212/2/2
f 209/2/2 210/2/2 213/2/2
f 213/2/2 210/2/2 214/2/2
f 211/4/2 212/4/2 219/4/2
f 219/4/2 212/4/2 220/4/2
f 215/1/2 216/1/2 221/1/2
f 221/1/2 216/1/2 222/1/2
f 217/1/2 218/1/2 225/1/2
f 225/1/2 218/1/2 226/1/2
f 213/4/2 214/4/2 227/4/2
f 227/4/2 214/4/2 228/4/2
f 222/1/2 223/1/2 229/1/2
f 229/1/2 223/1/2 230/1/2
f 224/1/2 225/1/2 231/1/2
f 231/1/2 225/1/2 232/1/2
f 233/3/2 234/3/2 237/3/2
f 237/3/2 234/3/2 238/3/2
f 235/3/2 236/3/2 239/3/2
f 239/3/2 236/3/2 240/3/2
f 237/1/2 238/1/2 241/1/2
f 241/1/2 238/1/2 242/1/2
f 239/1/2 240/1/2 243/1/2
f 243/1/2 240/1/2 244/1/2
f 245/3/2 246/3/2 249/3/2
f 249/3/2 246/3/2 250/3/2
f 247/3/2 248/3/2 251/3/2
f 251/3/2 248/3/2 252/3/2
f 253/2/2 254/2/2 257/2/2
f 254/3/2 255/3/2 258/3/2
f 257/2/2 254/2/2 258/2/2
f 255/2/2 256/2/2 259/2/2
f 258/3/2 255/3/2 259/3/2
f 259/2/2 256/2/2 260/2/2
f 257/4/2 258/4/2 261/4/2
f 261/4/2 258/4/2 262/4/2
f 259/4/2 260/4/2 263/4/2
f 263/4/2 260/4/2 264/4/2
f 268/2/3 266/2/3 265/2/3
f 269/4/3 267/4/3 266/4/3
f 269/2/3 266/2/3 268/2/3
f 270/4/3 267/4/3 269/4/3
f 271/3/3 269/3/3 268/3/3
f 272/3/3 269/3/3 271/3/3
f 274/2/3 272/2/3 271/2/3
f 275/4/3 273/4/3 272/4/3
f 275/2/3 272/2/3 274/2/3
f 276/4/3 273/4/3 275/4/3
f 280/3/3 278/3/3 277/3/3
f 280/1/3 279/1/3 278/1/3
f 281/1/3 279/1/3 280/1/3
f 282/3/3 280/3/3 277/3/3
f 283/3/3 280/3/3 282/3/3
f 286/3/3 285/3/3 284/3/3
f 288/3/3 286/3/3 284/3/3
f 289/1/3 287/1/3 286/1/3
f 289/3/3 286/3/3 288/3/3
f 290/1/3 287/1/3 289/1/3
f 293/3/3 292/3/3 291/3/3
f 294/3/3 292/3/3 293/3/3
f 297/1/3 296/1/3 295/1/3
f 298/1/3 296/1/3 297/1/3
f 301/1/3 300/1/3 299/1/3
f 302/1/3 300/1/3 301/1/3
f 305/3/3 304/3/3 303/3/3
f 306/3/3 304/3/3 305/3/3
f 310/2/3 308/2/3 307/2/3
f 311/4/3 309/4/3 308/4/3
f 311/2/3 308/2/3 310/2/3
f 312/4/3 309/4/3 311/4/3
f 315/1/3 314/1/3 313/1/3
f 316/1/3 314/1/3 315/1/3
f 319/1/3 318/1/3 317/1/3
f 320/1/3 318/1/3 319/1/3
f 324/2/3 322/2/3 321/2/3
f 325/4/3 323/4/3 322/4/3
f 325/2/3 322/2/3 324/2/3
f 326/4/3 323/4/3 325/4/3
f 329/3/3 328/3/3 327/3/3
f 330/3/3 328/3/3 329/3/3
f 333/1/3 332/1/3 331/1/3
f 334/1/3 332/1/3 333/1/3
f 337/3/3 336/3/3 335/3/3
f 338/3/3 336/3/3 337/3/3
f 341/4/3 340/4/3 339/4/3
f 342/4/3 340/4/3 341/4/3
f 345/3/3 344/3/3 343/3/3
f 346/3/3 344/3/3 345/3/3
f 349/1/3 348/1/3 347/1/3
f 350/1/3 348/1/3 349/1/3
f 353/1/3 352/1/3 351/1/3
f 354/1/3 352/1/3 353/1/3
f 357/3/3 356/3/3 355/3/3
f 358/3/3 356/3/3 357/3/3
f 361/4/3 360/4/3 359/4/3
f 362/4/3 360/4/3 361/4/3
f 365/1/3 364/1/3 363/1/3
f 366/1/3 364/1/3 365/1/3
f 369/1/3 368/1/3 367/1/3
f 370/1/3 368/1/3 369/1/3
f 374/3/3 372/3/3 371/3/3
f 374/1/3 373/1/3 372/1/3
f 375/1/3 373/1/3 374/1/3
f 376/3/3 374/3/3 371/3/3
f 377/3/3 374/3/3 376/3/3
f 380/3/3 379/3/3 378/3/3
f 382/3/3 380/3/3 378/3/3
f 383/1/3 381/1/3 380/1/3
f 383/3/3 380/3/3 382/3/3
f 384/1/3 381/1/3 383/1/3
f 387/3/3 386/3/3 385/3/3
f 388/3/3 386/3/3 387/3/3
f 392/2/3 390/2/3 389/2/3
f 393/4/3 391/4/3 390/4/3
f 393/2/3 390/2/3 392/2/3
f 394/4/3 391/4/3 393/4/3
f 398/2/3 396/2/3 395/2/3
f 399/4/3 397/4/3 396/4/3
f 399/2/3 396/2/3 398/2/3
f 400/4/3 397/4/3 399/4/3
f 401/2/4 402/2/4 404/2/4
f 402/4/4 403/4/4 405/4/4
f 404/2/4 402/2/4 405/2/4
f 405/4/4 403/4/4 406/4/4
f 407/2/4 408/2/4 410/2/4
f 408/4/4 409/4/4 411/4/4
f 410/2/4 408/2/4 411/2/4
f 411/4/4 409/4/4 412/4/4
f 413/3/4 414/3/4 415/3/4
f 415/3/4 414/3/4 416/3/4
f 417/3/4 418/3/4 420/3/4
f 418/1/4 419/1/4 420/1/4
f 420/1/4 419/1/4 421/1/4
f 417/3/4 420/3/4 422/3/4
f 422/3/4 420/3/4 423/3/4
f 424/3/4 425/3/4 426/3/4
f 424/3/4 426/3/4 428/3/4
f 426/1/4 427/1/4 429/1/4
f 428/3/4 426/3/4 429/3/4
f 429/1/4 427/1/4 430/1/4
f 431/1/4 432/1/4 433/1/4
f 433/1/4 432/1/4 434/1/4
f 435/1/4 436/1/4 437/1/4
f 437/1/4 436/1/4 438/1/4
f 439/4/4 440/4/4 441/4/4
f 441/4/4 440/4/4 442/4/4
f 443/3/4 444/3/4 445/3/4
f 445/3/4 444/3/4 446/3/4
f 447/1/4 448/1/4 449/1/4
f 449/1/4 448/1/4 450/1/4
f 451/1/4 452/1/4 453/1/4
f 453/1/4 452/1/4 454/1/4
f 455/3/4 456/3/4 457/3/4
f 457/3/4 456/3/4 458/3/4
f 459/4/4 460/4/4 461/4/4
f 461/4/4 460/4/4 462/4/4
f 463/3/4 464/3/4 465/3/4
f 465/3/4 464/3/4 466/3/4
f 467/1/4 468/1/4 469/1/4
f 469/1/4 468/1/4 470/1/4
f 471/3/4 472/3/4 473/3/4
f 473/3/4 472/3/4 474/3/4
f 475/2/4 476/2/4 478/2/4
f 476/4/4 477/4/4 479/4/4
f 478/2/4 476/2/4 479/2/4
f 479/4/4 477/4/4 480/4/4
f 481/1/4 482/1/4 483/1/4
f 483/1/4 482/1/4 484/1/4
f 485/1/4 486/1/4 487/1/4
f 487/1/4 486/1/4 488/1/4
f 489/2/4 490/2/4 492/2/4
f 490/4/4 491/4/4 493/4/4
f 492/2/4 490/2/4 493/2/4
f 493/4/4 491/4/4 494/4/4
f 495/3/4 496/3/4 497/3/4
f 497/3/4 496/3/4 498/3/4
f 499/1/4 500/1/4 501/1/4
f 501/1/4 500/1/4 502/1/4
f 503/1/4 504/1/4 505/1/4
f 505/1/4 504/1/4 506/1/4
f 507/3/4 508/3/4 509/3/4
f 509/3/4 508/3/4 510/3/4
f 511/3/4 512/3/4 514/3/4
f 512/1/4 513/1/4 514/1/4
f 514/1/4 513/1/4 515/1/4
f 511/3/4 514/3/4 516/3/4
f 516/3/4 514/3/4 517/3/4
f 518/3/4 519/3/4 520/3/4
f 518/3/4 520/3/4 522/3/4
f 520/1/4 521/1/4 523/1/4
f 522/3/4 520/3/4 523/3/4
f 523/1/4 521/1/4 524/1/4
f 525/2/4 526/2/4 528/2/4
f 526/4/4 527/4/4 529/4/4
f 528/2/4 526/2/4 529/2/4
f 529/4/4 527/4/4 530/4/4
f 528/3/4 529/3/4 531/3/4
f 531/3/4 529/3/4 532/3/4
f 531/2/4 532/2/4 534/2/4
f 532/4/4 533/4/4 535/4/4
f 534/2/4 532/2/4 535/2/4
f 535/4/4 533/4/4 536/4/4
f 541/2/5 538/2/5 537/2/5
f 542/3/5 539/3/5 538/3/5
f 542/2/5 538/2/5 541/2/5
f 543/2/5 540/2/5 539/2/5
f 543/3/5 539/3/5 542/3/5
f 544/2/5 540/2/5 543/2/5
f 546/3/5 543/3/5 542/3/5
f 547/3/5 543/3/5 546/3/5
f 550/3/5 546/3/5 545/3/5
f 551/3/5 546/3/5 550/3/5
f 552/3/5 548/3/5 547/3/5
f 553/3/5 548/3/5 552/3/5
f 559/2/5 556/2/5 555/2/5
f 560/2/5 556/2/5 559/2/5
f 561/3/5 550/3/5 549/3/5
f 562/3/5 550/3/5 561/3/5
f 563/3/5 554/3/5 553/3/5
f 564/3/5 554/3/5 563/3/5
f 565/2/5 558/2/5 557/2/5
f 566/2/5 558/2/5 565/2/5
f 567/3/5 560/3/5 559/3/5
f 567/3/5 561/3/5 560/3/5
f 568/3/5 561/3/5 567/3/5
f 569/3/5 561/3/5 568/3/5
f 572/3/5 566/3/5 565/3/5
f 572/3/5 565/3/5 564/3/5
f 573/3/5 566/3/5 572/3/5
f 574/3/5 566/3/5 573/3/5
f 575/2/5 568/2/5 567/2/5
f 576/2/5 568/2/5 575/2/5
f 577/2/5 574/2/5 573/2/5
f 578/2/5 574/2/5 577/2/5
f 579/3/5 570/3/5 569/3/5
f 580/3/5 570/3/5 579/3/5
f 583/3/5 572/3/5 571/3/5
f 584/3/5 572/3/5 583/3/5
f 585/3/5 581/3/5 580/3/5
f 586/3/5 581/3/5 585/3/5
f 587/3/5 583/3/5 582/3/5
f 588/3/5 583/3/5 587/3/5
f 590/3/5 587/3/5 586/3/5
f 591/3/5 587/3/5 590/3/5
f 593/2/5 590/2/5 589/2/5
f 594/3/5 591/3/5 590/3/5
f 594/2/5 590/2/5 593/2/5
f 595/2/5 592/2/5 591/2/5
f 595/3/5 591/3/5 594/3/5
f 596/2/5 592/2/5 595/2/5
f 601/1/5 598/1/5 597/1/5
f 602/1/5 598/1/5 601/1/5
f 603/1/5 600/1/5 599/1/5
f 604/1/5 600/1/5 603/1/5
f 609/1/5 606/1/5 605/1/5
f 610/1/5 606/1/5 609/1/5
f 611/1/5 608/1/5 607/1/5
f 612/1/5 608/1/5 611/1/5
f 617/1/5 614/1/5 613/1/5
f 618/1/5 614/1/5 617/1/5
f 619/1/5 616/1/5 615/1/5
f 620/1/5 616/1/5 619/1/5
f 625/1/5 622/1/5 621/1/5
f 626/1/5 622/1/5 625/1/5
f 627/1/5 624/1/5 623/1/5
f 628/1/5 624/1/5 627/1/5
f 631/1/5 630/1/5 629/1/5
f 632/1/5 630/1/5 631/1/5
f 633/3/6 634/3/6 635/3/6
f 635/3/6 634/3/6 636/3/6
f 635/3/6 636/3/6 638/3/6
f 638/3/6 636/3/6 639/3/6
f 637/3/6 638/3/6 643/3/6
f 643/3/6 638/3/6 644/3/6
f 639/3/6 640/3/6 645/3/6
f 645/3/6 640/3/6 646/3/6
f 641/3/6 642/3/6 651/3/6
f 651/3/6 642/3/6 652/3/6
f 647/3/6 648/3/6 653/3/6
f 653/3/6 648/3/6 654/3/6
f 649/3/6 650/3/6 657/3/6
f 650/3/6 651/3/6 657/3/6
f 657/3/6 651/3/6 658/3/6
f 658/3/6 651/3/6 659/3/6
f 655/3/6 656/3/6 662/3/6
f 654/3/6 655/3/6 662/3/6
f 662/3/6 656/3/6 663/3/6
f 663/3/6 656/3/6 664/3/6
f 659/3/6 660/3/6 665/3/6
f 665/3/6 660/3/6 666/3/6
f 661/3/6 662/3/6 671/3/6
f 671/3/6 662/3/6 672/3/6
f 667/3/6 668/3/6 673/3/6
f 673/3/6 668/3/6 674/3/6
f 669/3/6 670/3/6 675/3/6
f 675/3/6 670/3/6 676/3/6
f 674/3/6 675/3/6 677/3/6
f 677/3/6 675/3/6 678/3/6
f 677/3/6 678/3/6 679/3/6
f 679/3/6 678/3/6 680/3/6
f 681/1/6 682/1/6 685/1/6
f 685/1/6 682/1/6 686/1/6
f 683/1/6 684/1/6 687/1/6
f 687/1/6 684/1/6 688/1/6
f 689/1/6 690/1/6 693/1/6
f 693/1/6 690/1/6 694/1/6
f 691/1/6 692/1/6 695/1/6
f 695/1/6 692/1/6 696/1/6
f 697/4/6 698/4/6 701/4/6
f 701/4/6 698/4/6 702/4/6
f 699/4/6 700/4/6 703/4/6
f 703/4/6 700/4/6 704/4/6
f 705/1/6 706/1/6 711/1/6
f 711/1/6 706/1/6 712/1/6
f 707/1/6 708/1/6 713/1/6
f 713/1/6 708/1/6 714/1/6
f 709/4/6 710/4/6 717/4/6
f 717/4/6 710/4/6 718/4/6
f 715/4/6 716/4/6 719/4/6
f 719/4/6 716/4/6 720/4/6
f 721/4/6 722/4/6 725/4/6
f 725/4/6 722/4/6 726/4/6
f 723/4/6 724/4/6 731/4/6
f 731/4/6 724/4/6 732/4/6
f 727/1/6 728/1/6 733/1/6
f 733/1/6 728/1/6 734/1/6
f 729/1/6 730/1/6 735/1/6
f 735/1/6 730/1/6 736/1/6
f 737/4/6 738/4/6 741/4/6
f 741/4/6 738/4/6 742/4/6
f 739/4/6 740/4/6 743/4/6
f 743/4/6 740/4/6 744/4/6
f 745/1/6 746/1/6 749/1/6
f 749/1/6 746/1/6 750/1/6
f 747/1/6 748/1/6 751/1/6
f 751/1/6 748/1/6 752/1/6
f 753/1/6 754/1/6 757/1/6
f 757/1/6 754/1/6 758/1/6
f 755/1/6 756/1/6 759/1/6
f 759/1/6 756/1/6 760/1/6
f 761/1/6 762/1/6 763/1/6
f 763/1/6 762/1/6 764/1/6
