# MagicaVoxel @ Ephtracy

# material
mtllib chair.mtl
usemtl palette

# normals
vn -1 0 0
vn 1 0 0
vn 0 0 1
vn 0 0 -1
vn 0 -1 0
vn 0 1 0

# texcoords
vt 0.291016 0.5
vt 0.306641 0.5
vt 0.431641 0.5

# verts
v -3 3 10
v -3 3 4
v -3 4 10
v -3 4 9
v -3 4 5
v -3 4 4
v -3 5 10
v -3 5 9
v -3 5 5
v -3 6 9
v -3 6 5
v -3 9 5
v -3 9 4
v -2 0 9
v -2 0 8
v -2 0 6
v -2 0 5
v -2 3 9
v -2 3 8
v -2 3 6
v -2 3 5
v -2 9 5
v -2 9 4
v -2 10 5
v -2 10 4
v -1 4 5
v -1 4 4
v -1 9 5
v -1 9 4
v 1 0 9
v 1 0 8
v 1 0 6
v 1 0 5
v 1 3 9
v 1 3 8
v 1 3 6
v 1 3 5
v 2 4 10
v 2 4 9
v 2 4 5
v 2 4 4
v 2 5 10
v 2 5 9
v 2 5 5
v 2 6 9
v 2 6 5
v 2 9 5
v 2 9 4
v -2 4 10
v -2 4 9
v -2 4 5
v -2 4 4
v -2 5 10
v -2 5 9
v -2 5 5
v -2 6 9
v -2 6 5
v -2 9 5
v -2 9 4
v -1 0 9
v -1 0 8
v -1 0 6
v -1 0 5
v -1 3 9
v -1 3 8
v -1 3 6
v -1 3 5
v 1 4 5
v 1 4 4
v 1 9 5
v 1 9 4
v 2 0 9
v 2 0 8
v 2 0 6
v 2 0 5
v 2 3 9
v 2 3 8
v 2 3 6
v 2 3 5
v 2 9 5
v 2 9 4
v 2 10 5
v 2 10 4
v 3 3 10
v 3 3 4
v 3 4 10
v 3 4 9
v 3 4 5
v 3 4 4
v 3 5 10
v 3 5 9
v 3 5 5
v 3 6 9
v 3 6 5
v 3 9 5
v 3 9 4
v -3 3 10
v -3 4 10
v -3 5 10
v -2 4 10
v -2 5 10
v 2 4 10
v 2 5 10
v 3 3 10
v 3 4 10
v 3 5 10
v -3 5 9
v -3 6 9
v -2 0 9
v -2 3 9
v -2 5 9
v -2 6 9
v -1 0 9
v -1 3 9
v 1 0 9
v 1 3 9
v 2 0 9
v 2 3 9
v 2 5 9
v 2 6 9
v 3 5 9
v 3 6 9
v -2 0 6
v -2 3 6
v -1 0 6
v -1 3 6
v 1 0 6
v 1 3 6
v 2 0 6
v 2 3 6
v -3 4 5
v -3 5 5
v -3 6 5
v -3 9 5
v -2 4 5
v -2 5 5
v -2 6 5
v -2 9 5
v -2 10 5
v -1 4 5
v -1 9 5
v 1 4 5
v 1 9 5
v 2 4 5
v 2 5 5
v 2 6 5
v 2 9 5
v 2 10 5
v 3 4 5
v 3 5 5
v 3 6 5
v 3 9 5
v -3 4 9
v -3 5 9
v -2 4 9
v -2 5 9
v 2 4 9
v 2 5 9
v 3 4 9
v 3 5 9
v -2 0 8
v -2 3 8
v -1 0 8
v -1 3 8
v 1 0 8
v 1 3 8
v 2 0 8
v 2 3 8
v -2 0 5
v -2 3 5
v -1 0 5
v -1 3 5
v 1 0 5
v 1 3 5
v 2 0 5
v 2 3 5
v -3 3 4
v -3 4 4
v -3 9 4
v -2 4 4
v -2 9 4
v -2 10 4
v -1 4 4
v -1 9 4
v 1 4 4
v 1 9 4
v 2 4 4
v 2 9 4
v 2 10 4
v 3 3 4
v 3 4 4
v 3 9 4
v -2 0 9
v -1 0 9
v 1 0 9
v 2 0 9
v -2 0 8
v -1 0 8
v 1 0 8
v 2 0 8
v -2 0 6
v -1 0 6
v 1 0 6
v 2 0 6
v -2 0 5
v -1 0 5
v 1 0 5
v 2 0 5
v -3 3 10
v 3 3 10
v -2 3 9
v -1 3 9
v 1 3 9
v 2 3 9
v -2 3 8
v -1 3 8
v 1 3 8
v 2 3 8
v -2 3 6
v -1 3 6
v 1 3 6
v 2 3 6
v -2 3 5
v -1 3 5
v 1 3 5
v 2 3 5
v -3 3 4
v 3 3 4
v -3 5 9
v -2 5 9
v 2 5 9
v 3 5 9
v -3 5 5
v -2 5 5
v 2 5 5
v 3 5 5
v -2 9 5
v -1 9 5
v 1 9 5
v 2 9 5
v -2 9 4
v -1 9 4
v 1 9 4
v 2 9 4
v -2 4 10
v 2 4 10
v -3 4 9
v -2 4 9
v 2 4 9
v 3 4 9
v -3 4 5
v -2 4 5
v -1 4 5
v 1 4 5
v 2 4 5
v 3 4 5
v -2 4 4
v -1 4 4
v 1 4 4
v 2 4 4
v -3 5 10
v -2 5 10
v 2 5 10
v 3 5 10
v -3 5 9
v -2 5 9
v 2 5 9
v 3 5 9
v -3 6 9
v -2 6 9
v 2 6 9
v 3 6 9
v -3 6 5
v -2 6 5
v 2 6 5
v 3 6 5
v -3 9 5
v -2 9 5
v 2 9 5
v 3 9 5
v -3 9 4
v -2 9 4
v 2 9 4
v 3 9 4
v -2 10 5
v 2 10 5
v -2 10 4
v 2 10 4

# faces
f 3/2/1 2/2/1 1/2/1
f 4/2/1 2/2/1 3/2/1
f 5/2/1 2/2/1 4/2/1
f 6/2/1 2/2/1 5/2/1
f 7/1/1 4/1/1 3/1/1
f 8/1/1 4/1/1 7/1/1
f 9/3/1 6/3/1 5/3/1
f 10/1/1 9/1/1 8/1/1
f 11/3/1 6/3/1 9/3/1
f 11/1/1 9/1/1 10/1/1
f 12/3/1 6/3/1 11/3/1
f 13/3/1 6/3/1 12/3/1
f 18/2/1 15/2/1 14/2/1
f 19/2/1 15/2/1 18/2/1
f 20/2/1 17/2/1 16/2/1
f 21/2/1 17/2/1 20/2/1
f 24/3/1 23/3/1 22/3/1
f 25/3/1 23/3/1 24/3/1
f 28/3/1 27/3/1 26/3/1
f 29/3/1 27/3/1 28/3/1
f 34/2/1 31/2/1 30/2/1
f 35/2/1 31/2/1 34/2/1
f 36/2/1 33/2/1 32/2/1
f 37/2/1 33/2/1 36/2/1
f 42/1/1 39/1/1 38/1/1
f 43/1/1 39/1/1 42/1/1
f 44/3/1 41/3/1 40/3/1
f 45/1/1 44/1/1 43/1/1
f 46/3/1 41/3/1 44/3/1
f 46/1/1 44/1/1 45/1/1
f 47/3/1 41/3/1 46/3/1
f 48/3/1 41/3/1 47/3/1
f 49/1/2 50/1/2 53/1/2
f 53/1/2 50/1/2 54/1/2
f 51/3/2 52/3/2 55/3/2
f 54/1/2 55/1/2 56/1/2
f 55/3/2 52/3/2 57/3/2
f 56/1/2 55/1/2 57/1/2
f 57/3/2 52/3/2 58/3/2
f 58/3/2 52/3/2 59/3/2
f 60/2/2 61/2/2 64/2/2
f 64/2/2 61/2/2 65/2/2
f 62/2/2 63/2/2 66/2/2
f 66/2/2 63/2/2 67/2/2
f 68/3/2 69/3/2 70/3/2
f 70/3/2 69/3/2 71/3/2
f 72/2/2 73/2/2 76/2/2
f 76/2/2 73/2/2 77/2/2
f 74/2/2 75/2/2 78/2/2
f 78/2/2 75/2/2 79/2/2
f 80/3/2 81/3/2 82/3/2
f 82/3/2 81/3/2 83/3/2
f 84/2/2 85/2/2 86/2/2
f 86/2/2 85/2/2 87/2/2
f 87/2/2 85/2/2 88/2/2
f 88/2/2 85/2/2 89/2/2
f 86/1/2 87/1/2 90/1/2
f 90/1/2 87/1/2 91/1/2
f 88/3/2 89/3/2 92/3/2
f 91/1/2 92/1/2 93/1/2
f 92/3/2 89/3/2 94/3/2
f 93/1/2 92/1/2 94/1/2
f 94/3/2 89/3/2 95/3/2
f 95/3/2 89/3/2 96/3/2
f 100/2/3 98/2/3 97/2/3
f 100/1/3 99/1/3 98/1/3
f 101/1/3 99/1/3 100/1/3
f 102/2/3 100/2/3 97/2/3
f 104/2/3 102/2/3 97/2/3
f 105/1/3 103/1/3 102/1/3
f 105/2/3 102/2/3 104/2/3
f 106/1/3 103/1/3 105/1/3
f 111/1/3 108/1/3 107/1/3
f 112/1/3 108/1/3 111/1/3
f 113/2/3 110/2/3 109/2/3
f 114/2/3 110/2/3 113/2/3
f 117/2/3 116/2/3 115/2/3
f 118/2/3 116/2/3 117/2/3
f 121/1/3 120/1/3 119/1/3
f 122/1/3 120/1/3 121/1/3
f 125/2/3 124/2/3 123/2/3
f 126/2/3 124/2/3 125/2/3
f 129/2/3 128/2/3 127/2/3
f 130/2/3 128/2/3 129/2/3
f 135/3/3 132/3/3 131/3/3
f 136/3/3 132/3/3 135/3/3
f 137/3/3 134/3/3 133/3/3
f 138/3/3 134/3/3 137/3/3
f 141/3/3 139/3/3 138/3/3
f 142/3/3 141/3/3 140/3/3
f 143/3/3 139/3/3 141/3/3
f 143/3/3 141/3/3 142/3/3
f 147/3/3 139/3/3 143/3/3
f 148/3/3 139/3/3 147/3/3
f 149/3/3 145/3/3 144/3/3
f 150/3/3 145/3/3 149/3/3
f 151/3/3 147/3/3 146/3/3
f 152/3/3 147/3/3 151/3/3
f 153/1/4 154/1/4 155/1/4
f 155/1/4 154/1/4 156/1/4
f 157/1/4 158/1/4 159/1/4
f 159/1/4 158/1/4 160/1/4
f 161/2/4 162/2/4 163/2/4
f 163/2/4 162/2/4 164/2/4
f 165/2/4 166/2/4 167/2/4
f 167/2/4 166/2/4 168/2/4
f 169/2/4 170/2/4 171/2/4
f 171/2/4 170/2/4 172/2/4
f 173/2/4 174/2/4 175/2/4
f 175/2/4 174/2/4 176/2/4
f 177/2/4 178/2/4 180/2/4
f 178/3/4 179/3/4 180/3/4
f 180/3/4 179/3/4 181/3/4
f 177/2/4 180/2/4 183/2/4
f 181/3/4 182/3/4 184/3/4
f 177/2/4 183/2/4 185/2/4
f 183/3/4 184/3/4 185/3/4
f 184/3/4 182/3/4 186/3/4
f 185/3/4 184/3/4 186/3/4
f 177/2/4 185/2/4 187/2/4
f 186/3/4 182/3/4 188/3/4
f 188/3/4 182/3/4 189/3/4
f 177/2/4 187/2/4 190/2/4
f 187/3/4 188/3/4 191/3/4
f 190/2/4 187/2/4 191/2/4
f 191/3/4 188/3/4 192/3/4
f 197/2/5 194/2/5 193/2/5
f 198/2/5 194/2/5 197/2/5
f 199/2/5 196/2/5 195/2/5
f 200/2/5 196/2/5 199/2/5
f 205/2/5 202/2/5 201/2/5
f 206/2/5 202/2/5 205/2/5
f 207/2/5 204/2/5 203/2/5
f 208/2/5 204/2/5 207/2/5
f 211/2/5 210/2/5 209/2/5
f 212/2/5 210/2/5 211/2/5
f 213/2/5 210/2/5 212/2/5
f 214/2/5 210/2/5 213/2/5
f 215/2/5 211/2/5 209/2/5
f 216/2/5 213/2/5 212/2/5
f 217/2/5 213/2/5 216/2/5
f 218/2/5 210/2/5 214/2/5
f 219/2/5 217/2/5 216/2/5
f 219/2/5 218/2/5 217/2/5
f 219/2/5 215/2/5 209/2/5
f 219/2/5 216/2/5 215/2/5
f 220/2/5 218/2/5 219/2/5
f 221/2/5 218/2/5 220/2/5
f 222/2/5 210/2/5 218/2/5
f 222/2/5 218/2/5 221/2/5
f 223/2/5 219/2/5 209/2/5
f 224/2/5 221/2/5 220/2/5
f 225/2/5 221/2/5 224/2/5
f 226/2/5 210/2/5 222/2/5
f 227/2/5 223/2/5 209/2/5
f 227/2/5 226/2/5 225/2/5
f 227/2/5 225/2/5 224/2/5
f 227/2/5 224/2/5 223/2/5
f 228/2/5 210/2/5 226/2/5
f 228/2/5 226/2/5 227/2/5
f 233/1/5 230/1/5 229/1/5
f 234/1/5 230/1/5 233/1/5
f 235/1/5 232/1/5 231/1/5
f 236/1/5 232/1/5 235/1/5
f 241/3/5 238/3/5 237/3/5
f 242/3/5 238/3/5 241/3/5
f 243/3/5 240/3/5 239/3/5
f 244/3/5 240/3/5 243/3/5
f 245/2/6 246/2/6 248/2/6
f 248/2/6 246/2/6 249/2/6
f 247/2/6 248/2/6 251/2/6
f 249/2/6 250/2/6 251/2/6
f 248/2/6 249/2/6 251/2/6
f 251/2/6 250/2/6 252/2/6
f 252/2/6 250/2/6 253/2/6
f 253/2/6 250/2/6 254/2/6
f 254/2/6 250/2/6 255/2/6
f 255/2/6 250/2/6 256/2/6
f 252/2/6 253/2/6 257/2/6
f 257/2/6 253/2/6 258/2/6
f 254/2/6 255/2/6 259/2/6
f 259/2/6 255/2/6 260/2/6
f 261/1/6 262/1/6 265/1/6
f 265/1/6 262/1/6 266/1/6
f 263/1/6 264/1/6 267/1/6
f 267/1/6 264/1/6 268/1/6
f 269/1/6 270/1/6 273/1/6
f 273/1/6 270/1/6 274/1/6
f 271/1/6 272/1/6 275/1/6
f 275/1/6 272/1/6 276/1/6
f 277/3/6 278/3/6 281/3/6
f 281/3/6 278/3/6 282/3/6
f 279/3/6 280/3/6 283/3/6
f 283/3/6 280/3/6 284/3/6
f 285/3/6 286/3/6 287/3/6
f 287/3/6 286/3/6 288/3/6
