# MagicaVoxel @ Ephtracy

# material
mtllib pillar.mtl
usemtl palette

# normals
vn -1 0 0
vn 1 0 0
vn 0 0 1
vn 0 0 -1
vn 0 -1 0
vn 0 1 0

# texcoords
vt 0.486328 0.5
vt 0.498047 0.5
vt 0.521484 0.5

# verts
v -4 1 4
v -4 1 1
v -4 1 -0
v -4 1 -4
v -4 2 4
v -4 2 1
v -4 2 -0
v -4 2 -4
v -4 22 4
v -4 22 -4
v -4 23 4
v -4 23 -4
v -3 2 3
v -3 2 1
v -3 2 -0
v -3 2 -1
v -3 2 -3
v -3 3 3
v -3 3 -0
v -3 3 -1
v -3 3 -3
v -3 21 3
v -3 21 1
v -3 21 -0
v -3 21 -3
v -3 22 3
v -3 22 1
v -3 22 -0
v -3 22 -3
v -2 3 2
v -2 3 -0
v -2 3 -1
v -2 3 -2
v -2 4 2
v -2 4 -2
v -2 20 2
v -2 20 1
v -2 20 -0
v -2 20 -2
v -2 21 2
v -2 21 1
v -2 21 -0
v -2 21 -2
v -1 4 1
v -1 4 -1
v -1 5 -0
v -1 5 -1
v -1 6 -0
v -1 6 -1
v -1 7 -0
v -1 7 -1
v -1 8 -0
v -1 8 -1
v -1 9 1
v -1 9 -0
v -1 10 1
v -1 10 -0
v -1 12 1
v -1 12 -0
v -1 13 1
v -1 13 -0
v -1 14 1
v -1 14 -1
v -1 15 1
v -1 15 -1
v -1 17 1
v -1 17 -0
v -1 18 1
v -1 18 -0
v -1 20 1
v -1 20 -0
v -1 20 -1
v 1 4 1
v 1 4 -1
v 1 6 1
v 1 6 -0
v 1 7 1
v 1 7 -0
v 1 8 -0
v 1 8 -1
v 1 9 -0
v 1 9 -1
v 1 11 1
v 1 11 -0
v 1 12 1
v 1 12 -0
v 1 12 -1
v 1 13 -0
v 1 13 -1
v 1 14 1
v 1 14 -0
v 1 15 1
v 1 15 -0
v 1 16 -0
v 1 16 -1
v 1 17 -0
v 1 17 -1
v 1 18 -0
v 1 18 -1
v 1 19 -0
v 1 19 -1
v 1 20 1
v 1 20 -1
v 2 3 2
v 2 3 1
v 2 3 -2
v 2 4 2
v 2 4 1
v 2 4 -2
v 2 20 2
v 2 20 -2
v 2 21 2
v 2 21 1
v 2 21 -0
v 2 21 -2
v 3 2 3
v 3 2 1
v 3 2 -0
v 3 2 -3
v 3 3 3
v 3 3 -3
v 3 21 3
v 3 21 1
v 3 21 -0
v 3 21 -3
v 3 22 3
v 3 22 1
v 3 22 -0
v 3 22 -1
v 3 22 -3
v 4 1 4
v 4 1 1
v 4 1 -0
v 4 1 -4
v 4 2 4
v 4 2 1
v 4 2 -0
v 4 2 -4
v 4 22 4
v 4 22 -0
v 4 22 -1
v 4 22 -4
v 4 23 4
v 4 23 -0
v 4 23 -1
v 4 23 -4
v -4 1 4
v -4 2 4
v -4 22 4
v -4 23 4
v -2 1 4
v -2 2 4
v -2 22 4
v -2 23 4
v -1 1 4
v -1 2 4
v -1 22 4
v -1 23 4
v 1 1 4
v 1 2 4
v 2 1 4
v 2 2 4
v 4 1 4
v 4 2 4
v 4 22 4
v 4 23 4
v -3 2 3
v -3 3 3
v -3 21 3
v -3 22 3
v -2 2 3
v -2 22 3
v -1 2 3
v -1 22 3
v 1 2 3
v 1 21 3
v 1 22 3
v 2 2 3
v 2 21 3
v 2 22 3
v 3 2 3
v 3 3 3
v 3 21 3
v 3 22 3
v -2 3 2
v -2 4 2
v -2 20 2
v -2 21 2
v -1 20 2
v -1 21 2
v 0 20 2
v 0 21 2
v 1 3 2
v 1 4 2
v 1 21 2
v 2 3 2
v 2 4 2
v 2 20 2
v 2 21 2
v -1 4 1
v -1 9 1
v -1 10 1
v -1 12 1
v -1 13 1
v -1 14 1
v -1 15 1
v -1 17 1
v -1 18 1
v -1 20 1
v 0 6 1
v 0 7 1
v 0 9 1
v 0 10 1
v 0 11 1
v 0 12 1
v 0 13 1
v 0 14 1
v 0 15 1
v 0 17 1
v 0 18 1
v 0 20 1
v 1 4 1
v 1 6 1
v 1 7 1
v 1 11 1
v 1 12 1
v 1 14 1
v 1 15 1
v 1 20 1
v -1 4 -1
v -1 5 -1
v -1 6 -1
v -1 7 -1
v -1 8 -1
v -1 14 -1
v -1 15 -1
v -1 20 -1
v 0 5 -1
v 0 6 -1
v 0 7 -1
v 0 8 -1
v 0 9 -1
v 0 12 -1
v 0 13 -1
v 0 14 -1
v 0 15 -1
v 0 16 -1
v 0 17 -1
v 0 18 -1
v 0 19 -1
v 1 4 -1
v 1 8 -1
v 1 9 -1
v 1 12 -1
v 1 13 -1
v 1 16 -1
v 1 17 -1
v 1 18 -1
v 1 19 -1
v 1 20 -1
v -2 3 -2
v -2 4 -2
v -2 20 -2
v -2 21 -2
v 0 21 -2
v 1 21 -2
v 2 3 -2
v 2 4 -2
v 2 20 -2
v 2 21 -2
v -3 2 -3
v -3 3 -3
v -3 21 -3
v -3 22 -3
v 0 21 -3
v 0 22 -3
v 1 21 -3
v 1 22 -3
v 2 2 -3
v 2 22 -3
v 3 2 -3
v 3 3 -3
v 3 21 -3
v 3 22 -3
v -4 1 -4
v -4 2 -4
v -4 22 -4
v -4 23 -4
v 2 1 -4
v 2 2 -4
v 2 22 -4
v 2 23 -4
v 3 1 -4
v 3 2 -4
v 3 22 -4
v 3 23 -4
v 4 1 -4
v 4 2 -4
v 4 22 -4
v 4 23 -4
v -4 1 4
v -2 1 4
v -1 1 4
v 1 1 4
v 2 1 4
v 4 1 4
v -2 1 3
v -1 1 3
v 1 1 3
v 2 1 3
v -4 1 1
v -3 1 1
v 3 1 1
v 4 1 1
v -4 1 -0
v -3 1 -0
v 3 1 -0
v 4 1 -0
v 2 1 -3
v 3 1 -3
v -4 1 -4
v 2 1 -4
v 3 1 -4
v 4 1 -4
v -2 20 2
v -1 20 2
v 0 20 2
v 2 20 2
v -2 20 1
v -1 20 1
v 0 20 1
v 1 20 1
v -2 20 -0
v -1 20 -0
v -1 20 -1
v 1 20 -1
v -2 20 -2
v 2 20 -2
v -3 21 3
v 1 21 3
v 2 21 3
v 3 21 3
v -2 21 2
v -1 21 2
v 0 21 2
v 1 21 2
v 2 21 2
v -3 21 1
v -2 21 1
v 2 21 1
v 3 21 1
v -3 21 -0
v -2 21 -0
v 2 21 -0
v 3 21 -0
v -2 21 -2
v 0 21 -2
v 1 21 -2
v 2 21 -2
v -3 21 -3
v 0 21 -3
v 1 21 -3
v 3 21 -3
v -4 22 4
v -2 22 4
v -1 22 4
v 4 22 4
v -3 22 3
v -2 22 3
v -1 22 3
v 1 22 3
v 2 22 3
v 3 22 3
v -3 22 1
v 3 22 1
v -3 22 -0
v 3 22 -0
v 4 22 -0
v 3 22 -1
v 4 22 -1
v -3 22 -3
v 0 22 -3
v 1 22 -3
v 2 22 -3
v 3 22 -3
v -4 22 -4
v 2 22 -4
v 3 22 -4
v 4 22 -4
v -4 2 4
v -2 2 4
v -1 2 4
v 1 2 4
v 2 2 4
v 4 2 4
v -3 2 3
v -2 2 3
v -1 2 3
v 1 2 3
v 2 2 3
v 3 2 3
v -4 2 1
v -3 2 1
v 3 2 1
v 4 2 1
v -4 2 -0
v -3 2 -0
v 3 2 -0
v 4 2 -0
v -3 2 -1
v -3 2 -3
v 2 2 -3
v 3 2 -3
v -4 2 -4
v 2 2 -4
v 3 2 -4
v 4 2 -4
v -3 3 3
v 3 3 3
v -2 3 2
v 1 3 2
v 2 3 2
v 2 3 1
v -3 3 -0
v -2 3 -0
v -3 3 -1
v -2 3 -1
v -2 3 -2
v 2 3 -2
v -3 3 -3
v 3 3 -3
v -2 4 2
v 1 4 2
v 2 4 2
v -1 4 1
v 1 4 1
v 2 4 1
v -1 4 -1
v 1 4 -1
v -2 4 -2
v 2 4 -2
v -4 23 4
v -2 23 4
v -1 23 4
v 4 23 4
v -2 23 3
v -1 23 3
v 3 23 -0
v 4 23 -0
v 3 23 -1
v 4 23 -1
v 2 23 -3
v 3 23 -3
v -4 23 -4
v 2 23 -4
v 3 23 -4
v 4 23 -4

# faces
f 5/2/1 2/2/1 1/2/1
f 6/3/1 3/3/1 2/3/1
f 6/2/1 2/2/1 5/2/1
f 7/2/1 4/2/1 3/2/1
f 7/3/1 3/3/1 6/3/1
f 8/2/1 4/2/1 7/2/1
f 11/2/1 10/2/1 9/2/1
f 12/2/1 10/2/1 11/2/1
f 18/2/1 14/2/1 13/2/1
f 18/2/1 15/2/1 14/2/1
f 19/1/1 16/1/1 15/1/1
f 19/2/1 15/2/1 18/2/1
f 20/2/1 17/2/1 16/2/1
f 20/1/1 16/1/1 19/1/1
f 21/2/1 17/2/1 20/2/1
f 26/2/1 23/2/1 22/2/1
f 27/3/1 24/3/1 23/3/1
f 27/2/1 23/2/1 26/2/1
f 28/2/1 25/2/1 24/2/1
f 28/3/1 24/3/1 27/3/1
f 29/2/1 25/2/1 28/2/1
f 34/2/1 31/2/1 30/2/1
f 34/2/1 33/2/1 32/2/1
f 34/2/1 32/2/1 31/2/1
f 35/2/1 33/2/1 34/2/1
f 40/2/1 37/2/1 36/2/1
f 41/1/1 38/1/1 37/1/1
f 41/2/1 37/2/1 40/2/1
f 42/2/1 39/2/1 38/2/1
f 42/1/1 38/1/1 41/1/1
f 43/2/1 39/2/1 42/2/1
f 46/2/1 45/2/1 44/2/1
f 47/2/1 45/2/1 46/2/1
f 48/2/1 46/2/1 44/2/1
f 48/1/1 47/1/1 46/1/1
f 49/1/1 47/1/1 48/1/1
f 50/2/1 48/2/1 44/2/1
f 50/2/1 49/2/1 48/2/1
f 51/2/1 49/2/1 50/2/1
f 52/2/1 50/2/1 44/2/1
f 52/3/1 51/3/1 50/3/1
f 53/3/1 51/3/1 52/3/1
f 54/2/1 52/2/1 44/2/1
f 54/2/1 53/2/1 52/2/1
f 55/2/1 53/2/1 54/2/1
f 56/1/1 55/1/1 54/1/1
f 57/2/1 53/2/1 55/2/1
f 57/1/1 55/1/1 56/1/1
f 58/2/1 57/2/1 56/2/1
f 59/2/1 53/2/1 57/2/1
f 59/2/1 57/2/1 58/2/1
f 60/3/1 59/3/1 58/3/1
f 61/2/1 53/2/1 59/2/1
f 61/3/1 59/3/1 60/3/1
f 62/2/1 61/2/1 60/2/1
f 63/2/1 53/2/1 61/2/1
f 63/2/1 61/2/1 62/2/1
f 64/1/1 63/1/1 62/1/1
f 65/1/1 63/1/1 64/1/1
f 66/2/1 65/2/1 64/2/1
f 67/2/1 65/2/1 66/2/1
f 68/1/1 67/1/1 66/1/1
f 69/2/1 65/2/1 67/2/1
f 69/1/1 67/1/1 68/1/1
f 70/2/1 69/2/1 68/2/1
f 71/2/1 65/2/1 69/2/1
f 71/2/1 69/2/1 70/2/1
f 72/2/1 65/2/1 71/2/1
f 73/2/2 74/2/2 75/2/2
f 75/2/2 74/2/2 76/2/2
f 75/3/2 76/3/2 77/3/2
f 76/2/2 74/2/2 78/2/2
f 77/3/2 76/3/2 78/3/2
f 77/2/2 78/2/2 79/2/2
f 78/2/2 74/2/2 79/2/2
f 79/2/2 74/2/2 80/2/2
f 77/2/2 79/2/2 81/2/2
f 79/1/2 80/1/2 81/1/2
f 81/1/2 80/1/2 82/1/2
f 77/2/2 81/2/2 83/2/2
f 81/2/2 82/2/2 83/2/2
f 83/2/2 82/2/2 84/2/2
f 83/1/2 84/1/2 85/1/2
f 84/2/2 82/2/2 86/2/2
f 85/1/2 84/1/2 86/1/2
f 86/2/2 82/2/2 87/2/2
f 85/2/2 86/2/2 88/2/2
f 86/3/2 87/3/2 88/3/2
f 88/3/2 87/3/2 89/3/2
f 85/2/2 88/2/2 90/2/2
f 88/2/2 89/2/2 90/2/2
f 90/2/2 89/2/2 91/2/2
f 90/3/2 91/3/2 92/3/2
f 91/2/2 89/2/2 93/2/2
f 92/3/2 91/3/2 93/3/2
f 92/2/2 93/2/2 94/2/2
f 93/2/2 89/2/2 94/2/2
f 94/2/2 89/2/2 95/2/2
f 92/2/2 94/2/2 96/2/2
f 94/1/2 95/1/2 96/1/2
f 96/1/2 95/1/2 97/1/2
f 92/2/2 96/2/2 98/2/2
f 96/2/2 97/2/2 98/2/2
f 98/2/2 97/2/2 99/2/2
f 92/2/2 98/2/2 100/2/2
f 98/3/2 99/3/2 100/3/2
f 100/3/2 99/3/2 101/3/2
f 92/2/2 100/2/2 102/2/2
f 100/2/2 101/2/2 102/2/2
f 102/2/2 101/2/2 103/2/2
f 104/3/2 105/3/2 107/3/2
f 105/2/2 106/2/2 108/2/2
f 107/3/2 105/3/2 108/3/2
f 108/2/2 106/2/2 109/2/2
f 110/2/2 111/2/2 112/2/2
f 112/2/2 111/2/2 113/2/2
f 113/2/2 111/2/2 114/2/2
f 114/2/2 111/2/2 115/2/2
f 116/2/2 117/2/2 120/2/2
f 118/2/2 119/2/2 120/2/2
f 117/2/2 118/2/2 120/2/2
f 120/2/2 119/2/2 121/2/2
f 122/2/2 123/2/2 126/2/2
f 123/3/2 124/3/2 127/3/2
f 126/2/2 123/2/2 127/2/2
f 124/2/2 125/2/2 128/2/2
f 127/3/2 124/3/2 128/3/2
f 128/2/2 125/2/2 129/2/2
f 129/2/2 125/2/2 130/2/2
f 131/2/2 132/2/2 135/2/2
f 132/3/2 133/3/2 136/3/2
f 135/2/2 132/2/2 136/2/2
f 133/2/2 134/2/2 137/2/2
f 136/3/2 133/3/2 137/3/2
f 137/2/2 134/2/2 138/2/2
f 139/2/2 140/2/2 143/2/2
f 140/1/2 141/1/2 144/1/2
f 143/2/2 140/2/2 144/2/2
f 141/2/2 142/2/2 145/2/2
f 144/1/2 141/1/2 145/1/2
f 145/2/2 142/2/2 146/2/2
f 151/2/3 148/2/3 147/2/3
f 152/2/3 148/2/3 151/2/3
f 153/2/3 150/2/3 149/2/3
f 154/2/3 150/2/3 153/2/3
f 155/3/3 152/3/3 151/3/3
f 156/3/3 152/3/3 155/3/3
f 157/3/3 154/3/3 153/3/3
f 158/3/3 154/3/3 157/3/3
f 159/2/3 156/2/3 155/2/3
f 160/2/3 156/2/3 159/2/3
f 161/1/3 160/1/3 159/1/3
f 162/1/3 160/1/3 161/1/3
f 163/2/3 162/2/3 161/2/3
f 164/2/3 162/2/3 163/2/3
f 165/2/3 158/2/3 157/2/3
f 166/2/3 158/2/3 165/2/3
f 171/2/3 168/2/3 167/2/3
f 172/2/3 170/2/3 169/2/3
f 173/2/3 168/2/3 171/2/3
f 174/2/3 172/2/3 169/2/3
f 175/2/3 168/2/3 173/2/3
f 176/2/3 174/2/3 169/2/3
f 177/2/3 174/2/3 176/2/3
f 178/2/3 168/2/3 175/2/3
f 179/1/3 177/1/3 176/1/3
f 180/1/3 177/1/3 179/1/3
f 181/2/3 168/2/3 178/2/3
f 182/2/3 168/2/3 181/2/3
f 183/2/3 180/2/3 179/2/3
f 184/2/3 180/2/3 183/2/3
f 189/2/3 188/2/3 187/2/3
f 190/2/3 188/2/3 189/2/3
f 191/3/3 190/3/3 189/3/3
f 192/3/3 190/3/3 191/3/3
f 193/2/3 186/2/3 185/2/3
f 194/2/3 186/2/3 193/2/3
f 195/2/3 192/2/3 191/2/3
f 196/3/3 194/3/3 193/3/3
f 197/3/3 194/3/3 196/3/3
f 198/2/3 195/2/3 191/2/3
f 199/2/3 195/2/3 198/2/3
f 210/2/3 201/2/3 200/2/3
f 211/2/3 201/2/3 210/2/3
f 212/1/3 202/1/3 201/1/3
f 212/2/3 201/2/3 211/2/3
f 213/2/3 203/2/3 202/2/3
f 213/1/3 202/1/3 212/1/3
f 214/2/3 203/2/3 213/2/3
f 215/3/3 204/3/3 203/3/3
f 215/2/3 203/2/3 214/2/3
f 216/2/3 205/2/3 204/2/3
f 216/3/3 204/3/3 215/3/3
f 217/1/3 206/1/3 205/1/3
f 217/2/3 205/2/3 216/2/3
f 218/2/3 207/2/3 206/2/3
f 218/1/3 206/1/3 217/1/3
f 219/1/3 208/1/3 207/1/3
f 219/2/3 207/2/3 218/2/3
f 220/2/3 209/2/3 208/2/3
f 220/1/3 208/1/3 219/1/3
f 221/2/3 209/2/3 220/2/3
f 222/2/3 210/2/3 200/2/3
f 223/3/3 211/3/3 210/3/3
f 223/2/3 210/2/3 222/2/3
f 224/2/3 212/2/3 211/2/3
f 224/3/3 211/3/3 223/3/3
f 224/2/3 214/2/3 213/2/3
f 224/2/3 213/2/3 212/2/3
f 225/1/3 215/1/3 214/1/3
f 225/2/3 214/2/3 224/2/3
f 226/2/3 216/2/3 215/2/3
f 226/1/3 215/1/3 225/1/3
f 226/2/3 217/2/3 216/2/3
f 227/3/3 218/3/3 217/3/3
f 227/2/3 217/2/3 226/2/3
f 228/2/3 219/2/3 218/2/3
f 228/3/3 218/3/3 227/3/3
f 228/2/3 221/2/3 220/2/3
f 228/2/3 220/2/3 219/2/3
f 229/2/3 221/2/3 228/2/3
f 230/2/4 231/2/4 238/2/4
f 231/1/4 232/1/4 238/1/4
f 232/2/4 233/2/4 239/2/4
f 238/1/4 232/1/4 239/1/4
f 233/3/4 234/3/4 240/3/4
f 239/2/4 233/2/4 240/2/4
f 234/2/4 235/2/4 241/2/4
f 240/3/4 234/3/4 241/3/4
f 241/2/4 235/2/4 242/2/4
f 242/2/4 235/2/4 243/2/4
f 243/2/4 235/2/4 244/2/4
f 235/1/4 236/1/4 245/1/4
f 244/2/4 235/2/4 245/2/4
f 236/2/4 237/2/4 246/2/4
f 245/1/4 236/1/4 246/1/4
f 246/2/4 237/2/4 247/2/4
f 247/2/4 237/2/4 248/2/4
f 248/2/4 237/2/4 249/2/4
f 249/2/4 237/2/4 250/2/4
f 230/2/4 238/2/4 251/2/4
f 238/2/4 239/2/4 251/2/4
f 239/2/4 240/2/4 251/2/4
f 240/2/4 241/2/4 251/2/4
f 241/1/4 242/1/4 252/1/4
f 251/2/4 241/2/4 252/2/4
f 242/2/4 243/2/4 253/2/4
f 252/1/4 242/1/4 253/1/4
f 243/3/4 244/3/4 254/3/4
f 253/2/4 243/2/4 254/2/4
f 244/2/4 245/2/4 255/2/4
f 254/3/4 244/3/4 255/3/4
f 245/2/4 246/2/4 255/2/4
f 246/2/4 247/2/4 255/2/4
f 247/1/4 248/1/4 256/1/4
f 255/2/4 247/2/4 256/2/4
f 248/2/4 249/2/4 257/2/4
f 256/1/4 248/1/4 257/1/4
f 249/3/4 250/3/4 258/3/4
f 257/2/4 249/2/4 258/2/4
f 250/2/4 237/2/4 259/2/4
f 258/3/4 250/3/4 259/3/4
f 259/2/4 237/2/4 260/2/4
f 263/2/4 264/2/4 265/2/4
f 263/2/4 265/2/4 266/2/4
f 261/2/4 262/2/4 267/2/4
f 267/2/4 262/2/4 268/2/4
f 263/2/4 266/2/4 269/2/4
f 269/2/4 266/2/4 270/2/4
f 273/2/4 274/2/4 275/2/4
f 275/2/4 274/2/4 276/2/4
f 275/3/4 276/3/4 277/3/4
f 277/3/4 276/3/4 278/3/4
f 271/2/4 272/2/4 279/2/4
f 277/2/4 278/2/4 280/2/4
f 279/2/4 272/2/4 281/2/4
f 281/2/4 272/2/4 282/2/4
f 277/2/4 280/2/4 283/2/4
f 283/2/4 280/2/4 284/2/4
f 285/2/4 286/2/4 289/2/4
f 289/2/4 286/2/4 290/2/4
f 287/2/4 288/2/4 291/2/4
f 291/2/4 288/2/4 292/2/4
f 289/1/4 290/1/4 293/1/4
f 293/1/4 290/1/4 294/1/4
f 291/3/4 292/3/4 295/3/4
f 295/3/4 292/3/4 296/3/4
f 293/2/4 294/2/4 297/2/4
f 297/2/4 294/2/4 298/2/4
f 295/2/4 296/2/4 299/2/4
f 299/2/4 296/2/4 300/2/4
f 307/2/5 302/2/5 301/2/5
f 307/3/5 303/3/5 302/3/5
f 308/2/5 304/2/5 303/2/5
f 308/3/5 303/3/5 307/3/5
f 309/1/5 305/1/5 304/1/5
f 309/2/5 304/2/5 308/2/5
f 310/2/5 306/2/5 305/2/5
f 310/1/5 305/1/5 309/1/5
f 311/2/5 309/2/5 308/2/5
f 311/2/5 308/2/5 307/2/5
f 311/2/5 310/2/5 309/2/5
f 311/2/5 307/2/5 301/2/5
f 312/2/5 310/2/5 311/2/5
f 313/2/5 306/2/5 310/2/5
f 313/2/5 310/2/5 312/2/5
f 314/2/5 306/2/5 313/2/5
f 315/3/5 312/3/5 311/3/5
f 316/2/5 313/2/5 312/2/5
f 316/3/5 312/3/5 315/3/5
f 317/3/5 314/3/5 313/3/5
f 317/2/5 313/2/5 316/2/5
f 318/3/5 314/3/5 317/3/5
f 319/2/5 316/2/5 315/2/5
f 319/2/5 317/2/5 316/2/5
f 319/2/5 318/2/5 317/2/5
f 320/2/5 318/2/5 319/2/5
f 321/2/5 319/2/5 315/2/5
f 322/1/5 320/1/5 319/1/5
f 322/2/5 319/2/5 321/2/5
f 323/2/5 318/2/5 320/2/5
f 323/1/5 320/1/5 322/1/5
f 324/2/5 318/2/5 323/2/5
f 329/2/5 326/2/5 325/2/5
f 330/3/5 327/3/5 326/3/5
f 330/2/5 326/2/5 329/2/5
f 331/2/5 328/2/5 327/2/5
f 331/3/5 327/3/5 330/3/5
f 332/2/5 328/2/5 331/2/5
f 333/1/5 330/1/5 329/1/5
f 334/1/5 330/1/5 333/1/5
f 335/2/5 334/2/5 333/2/5
f 336/2/5 328/2/5 332/2/5
f 337/2/5 335/2/5 333/2/5
f 337/2/5 336/2/5 335/2/5
f 338/2/5 328/2/5 336/2/5
f 338/2/5 336/2/5 337/2/5
f 343/2/5 340/2/5 339/2/5
f 344/2/5 340/2/5 343/2/5
f 345/2/5 340/2/5 344/2/5
f 346/1/5 341/1/5 340/1/5
f 346/2/5 340/2/5 345/2/5
f 347/2/5 342/2/5 341/2/5
f 347/1/5 341/1/5 346/1/5
f 348/2/5 343/2/5 339/2/5
f 349/2/5 343/2/5 348/2/5
f 350/2/5 342/2/5 347/2/5
f 351/2/5 342/2/5 350/2/5
f 352/3/5 349/3/5 348/3/5
f 353/3/5 349/3/5 352/3/5
f 354/3/5 351/3/5 350/3/5
f 355/3/5 351/3/5 354/3/5
f 356/2/5 353/2/5 352/2/5
f 359/2/5 355/2/5 354/2/5
f 360/2/5 356/2/5 352/2/5
f 360/2/5 357/2/5 356/2/5
f 361/3/5 358/3/5 357/3/5
f 361/2/5 357/2/5 360/2/5
f 362/2/5 359/2/5 358/2/5
f 362/3/5 358/3/5 361/3/5
f 363/2/5 355/2/5 359/2/5
f 363/2/5 359/2/5 362/2/5
f 368/2/5 365/2/5 364/2/5
f 369/3/5 366/3/5 365/3/5
f 369/2/5 365/2/5 368/2/5
f 370/2/5 367/2/5 366/2/5
f 370/3/5 366/3/5 369/3/5
f 371/2/5 367/2/5 370/2/5
f 372/2/5 367/2/5 371/2/5
f 373/2/5 367/2/5 372/2/5
f 374/2/5 368/2/5 364/2/5
f 375/2/5 367/2/5 373/2/5
f 376/2/5 374/2/5 364/2/5
f 377/2/5 367/2/5 375/2/5
f 378/2/5 367/2/5 377/2/5
f 379/1/5 378/1/5 377/1/5
f 380/1/5 378/1/5 379/1/5
f 381/2/5 376/2/5 364/2/5
f 385/2/5 380/2/5 379/2/5
f 386/2/5 384/2/5 383/2/5
f 386/2/5 381/2/5 364/2/5
f 386/2/5 382/2/5 381/2/5
f 386/2/5 383/2/5 382/2/5
f 387/3/5 385/3/5 384/3/5
f 387/2/5 384/2/5 386/2/5
f 388/2/5 380/2/5 385/2/5
f 388/3/5 385/3/5 387/3/5
f 389/2/5 380/2/5 388/2/5
f 390/2/6 391/2/6 396/2/6
f 391/3/6 392/3/6 397/3/6
f 396/2/6 391/2/6 397/2/6
f 392/2/6 393/2/6 398/2/6
f 397/3/6 392/3/6 398/3/6
f 393/1/6 394/1/6 399/1/6
f 398/2/6 393/2/6 399/2/6
f 394/2/6 395/2/6 400/2/6
f 399/1/6 394/1/6 400/1/6
f 400/2/6 395/2/6 401/2/6
f 390/2/6 396/2/6 402/2/6
f 402/2/6 396/2/6 403/2/6
f 401/2/6 395/2/6 404/2/6
f 404/2/6 395/2/6 405/2/6
f 402/3/6 403/3/6 406/3/6
f 406/3/6 403/3/6 407/3/6
f 404/3/6 405/3/6 408/3/6
f 408/3/6 405/3/6 409/3/6
f 406/2/6 407/2/6 410/2/6
f 406/2/6 410/2/6 411/2/6
f 408/2/6 409/2/6 413/2/6
f 411/2/6 412/2/6 414/2/6
f 406/2/6 411/2/6 414/2/6
f 412/1/6 413/1/6 415/1/6
f 414/2/6 412/2/6 415/2/6
f 413/2/6 409/2/6 416/2/6
f 415/1/6 413/1/6 416/1/6
f 416/2/6 409/2/6 417/2/6
f 418/2/6 419/2/6 420/2/6
f 420/2/6 419/2/6 421/2/6
f 421/2/6 419/2/6 422/2/6
f 422/2/6 419/2/6 423/2/6
f 418/2/6 420/2/6 424/2/6
f 424/2/6 420/2/6 425/2/6
f 424/1/6 425/1/6 426/1/6
f 426/1/6 425/1/6 427/1/6
f 426/2/6 427/2/6 428/2/6
f 423/2/6 419/2/6 429/2/6
f 426/2/6 428/2/6 430/2/6
f 428/2/6 429/2/6 430/2/6
f 429/2/6 419/2/6 431/2/6
f 430/2/6 429/2/6 431/2/6
f 432/2/6 433/2/6 435/2/6
f 433/3/6 434/3/6 436/3/6
f 435/2/6 433/2/6 436/2/6
f 436/3/6 434/3/6 437/3/6
f 432/2/6 435/2/6 438/2/6
f 436/2/6 437/2/6 439/2/6
f 432/2/6 438/2/6 440/2/6
f 438/2/6 439/2/6 440/2/6
f 439/2/6 437/2/6 441/2/6
f 440/2/6 439/2/6 441/2/6
f 442/2/6 443/2/6 446/2/6
f 443/3/6 444/3/6 446/3/6
f 444/2/6 445/2/6 447/2/6
f 446/3/6 444/3/6 447/3/6
f 446/2/6 447/2/6 448/2/6
f 447/2/6 445/2/6 448/2/6
f 448/2/6 445/2/6 449/2/6
f 446/2/6 448/2/6 450/2/6
f 448/1/6 449/1/6 450/1/6
f 450/1/6 449/1/6 451/1/6
f 446/2/6 450/2/6 452/2/6
f 450/2/6 451/2/6 452/2/6
f 452/2/6 451/2/6 453/2/6
f 442/2/6 446/2/6 454/2/6
f 446/2/6 452/2/6 454/2/6
f 452/3/6 453/3/6 455/3/6
f 454/2/6 452/2/6 455/2/6
f 453/2/6 451/2/6 456/2/6
f 455/3/6 453/3/6 456/3/6
f 456/2/6 451/2/6 457/2/6
