# MagicaVoxel @ Ephtracy

# material
mtllib wall_lever-01.mtl
usemtl palette

# normals
vn -1 0 0
vn 1 0 0
vn 0 0 1
vn 0 0 -1
vn 0 -1 0
vn 0 1 0

# texcoords
vt 0.314453 0.5
vt 0.435547 0.5
vt 0.986328 0.5

# verts
v -12 8 3
v -12 8 -3
v -12 9 2
v -12 9 1
v -12 9 -1
v -12 9 -2
v -12 11 2
v -12 11 1
v -12 11 -1
v -12 11 -2
v -12 12 2
v -12 12 1
v -12 12 -1
v -12 12 -2
v -12 14 2
v -12 14 1
v -12 14 -1
v -12 14 -2
v -12 15 3
v -12 15 -3
v -11 12 2
v -11 12 1
v -11 12 -1
v -11 12 -2
v -11 13 2
v -11 13 1
v -11 13 -1
v -11 13 -2
v -9 13 2
v -9 13 1
v -9 13 -1
v -9 13 -2
v -9 14 2
v -9 14 1
v -9 14 -1
v -9 14 -2
v -7 13 3
v -7 13 2
v -7 13 1
v -7 13 -1
v -7 13 -2
v -7 13 -3
v -7 14 3
v -7 14 2
v -7 14 1
v -7 14 -1
v -7 14 -2
v -7 14 -3
v -11 8 3
v -11 8 -3
v -11 9 2
v -11 9 1
v -11 9 -1
v -11 9 -2
v -11 11 2
v -11 11 1
v -11 11 -1
v -11 11 -2
v -11 12 2
v -11 12 1
v -11 12 -1
v -11 12 -2
v -11 13 2
v -11 13 1
v -11 13 -1
v -11 13 -2
v -11 14 2
v -11 14 1
v -11 14 -1
v -11 14 -2
v -11 15 3
v -11 15 -3
v -9 12 2
v -9 12 1
v -9 12 -1
v -9 12 -2
v -9 13 2
v -9 13 1
v -9 13 -1
v -9 13 -2
v -6 13 3
v -6 13 -3
v -6 14 3
v -6 14 -3
v -12 8 3
v -12 15 3
v -11 8 3
v -11 15 3
v -7 13 3
v -7 14 3
v -6 13 3
v -6 14 3
v -11 12 2
v -11 13 2
v -9 12 2
v -9 13 2
v -9 14 2
v -7 13 2
v -7 14 2
v -12 9 1
v -12 11 1
v -12 12 1
v -12 14 1
v -11 9 1
v -11 11 1
v -11 12 1
v -11 13 1
v -11 14 1
v -11 12 -1
v -11 13 -1
v -9 12 -1
v -9 13 -1
v -9 14 -1
v -7 13 -1
v -7 14 -1
v -12 9 -2
v -12 11 -2
v -12 12 -2
v -12 14 -2
v -11 9 -2
v -11 11 -2
v -11 12 -2
v -11 13 -2
v -11 14 -2
v -12 9 2
v -12 11 2
v -12 12 2
v -12 14 2
v -11 9 2
v -11 11 2
v -11 12 2
v -11 13 2
v -11 14 2
v -11 12 1
v -11 13 1
v -9 12 1
v -9 13 1
v -9 14 1
v -7 13 1
v -7 14 1
v -12 9 -1
v -12 11 -1
v -12 12 -1
v -12 14 -1
v -11 9 -1
v -11 11 -1
v -11 12 -1
v -11 13 -1
v -11 14 -1
v -11 12 -2
v -11 13 -2
v -9 12 -2
v -9 13 -2
v -9 14 -2
v -7 13 -2
v -7 14 -2
v -12 8 -3
v -12 15 -3
v -11 8 -3
v -11 15 -3
v -7 13 -3
v -7 14 -3
v -6 13 -3
v -6 14 -3
v -12 8 3
v -11 8 3
v -12 8 -3
v -11 8 -3
v -12 11 2
v -11 11 2
v -12 11 1
v -11 11 1
v -12 11 -1
v -11 11 -1
v -12 11 -2
v -11 11 -2
v -11 12 2
v -9 12 2
v -11 12 1
v -9 12 1
v -11 12 -1
v -9 12 -1
v -11 12 -2
v -9 12 -2
v -7 13 3
v -6 13 3
v -9 13 2
v -7 13 2
v -9 13 1
v -7 13 1
v -9 13 -1
v -7 13 -1
v -9 13 -2
v -7 13 -2
v -7 13 -3
v -6 13 -3
v -12 14 2
v -11 14 2
v -12 14 1
v -11 14 1
v -12 14 -1
v -11 14 -1
v -12 14 -2
v -11 14 -2
v -12 9 2
v -11 9 2
v -12 9 1
v -11 9 1
v -12 9 -1
v -11 9 -1
v -12 9 -2
v -11 9 -2
v -12 12 2
v -11 12 2
v -12 12 1
v -11 12 1
v -12 12 -1
v -11 12 -1
v -12 12 -2
v -11 12 -2
v -11 13 2
v -9 13 2
v -11 13 1
v -9 13 1
v -11 13 -1
v -9 13 -1
v -11 13 -2
v -9 13 -2
v -7 14 3
v -6 14 3
v -9 14 2
v -7 14 2
v -9 14 1
v -7 14 1
v -9 14 -1
v -7 14 -1
v -9 14 -2
v -7 14 -2
v -7 14 -3
v -6 14 -3
v -12 15 3
v -11 15 3
v -12 15 -3
v -11 15 -3

# faces
f 3/1/1 2/1/1 1/1/1
f 4/1/1 2/1/1 3/1/1
f 5/1/1 2/1/1 4/1/1
f 6/1/1 2/1/1 5/1/1
f 7/1/1 3/1/1 1/1/1
f 8/1/1 5/1/1 4/1/1
f 9/1/1 5/1/1 8/1/1
f 10/1/1 2/1/1 6/1/1
f 11/1/1 7/1/1 1/1/1
f 11/2/1 8/2/1 7/2/1
f 12/1/1 9/1/1 8/1/1
f 12/2/1 8/2/1 11/2/1
f 13/2/1 10/2/1 9/2/1
f 13/1/1 9/1/1 12/1/1
f 14/1/1 2/1/1 10/1/1
f 14/2/1 10/2/1 13/2/1
f 15/1/1 11/1/1 1/1/1
f 16/1/1 13/1/1 12/1/1
f 17/1/1 13/1/1 16/1/1
f 18/1/1 2/1/1 14/1/1
f 19/1/1 17/1/1 16/1/1
f 19/1/1 18/1/1 17/1/1
f 19/1/1 15/1/1 1/1/1
f 19/1/1 16/1/1 15/1/1
f 20/1/1 2/1/1 18/1/1
f 20/1/1 18/1/1 19/1/1
f 25/2/1 22/2/1 21/2/1
f 26/2/1 22/2/1 25/2/1
f 27/2/1 24/2/1 23/2/1
f 28/2/1 24/2/1 27/2/1
f 33/2/1 30/2/1 29/2/1
f 34/2/1 30/2/1 33/2/1
f 35/2/1 32/2/1 31/2/1
f 36/2/1 32/2/1 35/2/1
f 43/3/1 38/3/1 37/3/1
f 44/3/1 38/3/1 43/3/1
f 45/3/1 40/3/1 39/3/1
f 46/3/1 40/3/1 45/3/1
f 47/3/1 42/3/1 41/3/1
f 48/3/1 42/3/1 47/3/1
f 49/1/2 50/1/2 51/1/2
f 51/1/2 50/1/2 52/1/2
f 52/1/2 50/1/2 53/1/2
f 53/1/2 50/1/2 54/1/2
f 49/1/2 51/1/2 55/1/2
f 52/1/2 53/1/2 56/1/2
f 56/1/2 53/1/2 57/1/2
f 54/1/2 50/1/2 58/1/2
f 49/1/2 55/1/2 59/1/2
f 55/2/2 56/2/2 59/2/2
f 56/1/2 57/1/2 60/1/2
f 59/2/2 56/2/2 60/2/2
f 57/2/2 58/2/2 61/2/2
f 60/1/2 57/1/2 61/1/2
f 58/1/2 50/1/2 62/1/2
f 61/2/2 58/2/2 62/2/2
f 49/1/2 59/1/2 63/1/2
f 60/1/2 61/1/2 64/1/2
f 64/1/2 61/1/2 65/1/2
f 62/1/2 50/1/2 66/1/2
f 49/1/2 63/1/2 67/1/2
f 64/1/2 65/1/2 68/1/2
f 68/1/2 65/1/2 69/1/2
f 66/1/2 50/1/2 70/1/2
f 49/1/2 67/1/2 71/1/2
f 69/1/2 70/1/2 71/1/2
f 68/1/2 69/1/2 71/1/2
f 67/1/2 68/1/2 71/1/2
f 70/1/2 50/1/2 72/1/2
f 71/1/2 70/1/2 72/1/2
f 73/2/2 74/2/2 77/2/2
f 77/2/2 74/2/2 78/2/2
f 75/2/2 76/2/2 79/2/2
f 79/2/2 76/2/2 80/2/2
f 81/3/2 82/3/2 83/3/2
f 83/3/2 82/3/2 84/3/2
f 87/1/3 86/1/3 85/1/3
f 88/1/3 86/1/3 87/1/3
f 91/3/3 90/3/3 89/3/3
f 92/3/3 90/3/3 91/3/3
f 95/2/3 94/2/3 93/2/3
f 96/2/3 94/2/3 95/2/3
f 98/2/3 97/2/3 96/2/3
f 99/2/3 97/2/3 98/2/3
f 104/1/3 101/1/3 100/1/3
f 105/1/3 101/1/3 104/1/3
f 106/1/3 103/1/3 102/1/3
f 107/1/3 103/1/3 106/1/3
f 108/1/3 103/1/3 107/1/3
f 111/2/3 110/2/3 109/2/3
f 112/2/3 110/2/3 111/2/3
f 114/2/3 113/2/3 112/2/3
f 115/2/3 113/2/3 114/2/3
f 120/1/3 117/1/3 116/1/3
f 121/1/3 117/1/3 120/1/3
f 122/1/3 119/1/3 118/1/3
f 123/1/3 119/1/3 122/1/3
f 124/1/3 119/1/3 123/1/3
f 125/1/4 126/1/4 129/1/4
f 129/1/4 126/1/4 130/1/4
f 127/1/4 128/1/4 131/1/4
f 131/1/4 128/1/4 132/1/4
f 132/1/4 128/1/4 133/1/4
f 134/2/4 135/2/4 136/2/4
f 136/2/4 135/2/4 137/2/4
f 137/2/4 138/2/4 139/2/4
f 139/2/4 138/2/4 140/2/4
f 141/1/4 142/1/4 145/1/4
f 145/1/4 142/1/4 146/1/4
f 143/1/4 144/1/4 147/1/4
f 147/1/4 144/1/4 148/1/4
f 148/1/4 144/1/4 149/1/4
f 150/2/4 151/2/4 152/2/4
f 152/2/4 151/2/4 153/2/4
f 153/2/4 154/2/4 155/2/4
f 155/2/4 154/2/4 156/2/4
f 157/1/4 158/1/4 159/1/4
f 159/1/4 158/1/4 160/1/4
f 161/3/4 162/3/4 163/3/4
f 163/3/4 162/3/4 164/3/4
f 167/1/5 166/1/5 165/1/5
f 168/1/5 166/1/5 167/1/5
f 171/2/5 170/2/5 169/2/5
f 172/2/5 170/2/5 171/2/5
f 175/2/5 174/2/5 173/2/5
f 176/2/5 174/2/5 175/2/5
f 179/2/5 178/2/5 177/2/5
f 180/2/5 178/2/5 179/2/5
f 183/2/5 182/2/5 181/2/5
f 184/2/5 182/2/5 183/2/5
f 188/3/5 186/3/5 185/3/5
f 189/2/5 188/2/5 187/2/5
f 190/3/5 186/3/5 188/3/5
f 190/2/5 188/2/5 189/2/5
f 192/3/5 186/3/5 190/3/5
f 193/2/5 192/2/5 191/2/5
f 194/3/5 186/3/5 192/3/5
f 194/2/5 192/2/5 193/2/5
f 195/3/5 186/3/5 194/3/5
f 196/3/5 186/3/5 195/3/5
f 199/1/5 198/1/5 197/1/5
f 200/1/5 198/1/5 199/1/5
f 203/1/5 202/1/5 201/1/5
f 204/1/5 202/1/5 203/1/5
f 205/1/6 206/1/6 207/1/6
f 207/1/6 206/1/6 208/1/6
f 209/1/6 210/1/6 211/1/6
f 211/1/6 210/1/6 212/1/6
f 213/2/6 214/2/6 215/2/6
f 215/2/6 214/2/6 216/2/6
f 217/2/6 218/2/6 219/2/6
f 219/2/6 218/2/6 220/2/6
f 221/2/6 222/2/6 223/2/6
f 223/2/6 222/2/6 224/2/6
f 225/2/6 226/2/6 227/2/6
f 227/2/6 226/2/6 228/2/6
f 229/3/6 230/3/6 232/3/6
f 231/2/6 232/2/6 233/2/6
f 232/3/6 230/3/6 234/3/6
f 233/2/6 232/2/6 234/2/6
f 234/3/6 230/3/6 236/3/6
f 235/2/6 236/2/6 237/2/6
f 236/3/6 230/3/6 238/3/6
f 237/2/6 236/2/6 238/2/6
f 238/3/6 230/3/6 239/3/6
f 239/3/6 230/3/6 240/3/6
f 241/1/6 242/1/6 243/1/6
f 243/1/6 242/1/6 244/1/6
