# MagicaVoxel @ Ephtracy

# material
mtllib torch_01.mtl
usemtl palette

# normals
vn -1 0 0
vn 1 0 0
vn 0 0 1
vn 0 0 -1
vn 0 -1 0
vn 0 1 0

# texcoords
vt 0.0605469 0.5
vt 0.126953 0.5
vt 0.158203 0.5
vt 0.845703 0.5
vt 0.927734 0.5

# verts
v -12 1 2
v -12 1 -2
v -12 2 2
v -12 2 1
v -12 2 -1
v -12 2 -2
v -12 10 2
v -12 10 1
v -12 10 -1
v -12 10 -2
v -12 11 3
v -12 11 2
v -12 11 -2
v -12 11 -3
v -12 12 4
v -12 12 3
v -12 12 1
v -12 12 -1
v -12 12 -3
v -12 12 -4
v -12 13 2
v -12 13 1
v -12 13 -1
v -12 13 -2
v -12 14 4
v -12 14 2
v -12 14 -2
v -12 14 -4
v -11 14 4
v -11 14 3
v -11 14 -3
v -11 14 -4
v -11 15 4
v -11 15 3
v -11 15 -3
v -11 15 -4
v -10 15 4
v -10 15 3
v -10 15 -3
v -10 15 -4
v -10 16 4
v -10 16 3
v -10 16 -3
v -10 16 -4
v -10 17 4
v -10 17 3
v -10 18 4
v -10 18 3
v -10 18 -3
v -10 18 -4
v -10 19 -3
v -10 19 -4
v -9 15 5
v -9 15 4
v -9 15 3
v -9 15 2
v -9 15 -2
v -9 15 -3
v -9 15 -4
v -9 15 -5
v -9 16 5
v -9 16 4
v -9 16 3
v -9 16 2
v -9 16 -2
v -9 16 -3
v -9 16 -4
v -9 16 -5
v -9 17 5
v -9 17 4
v -9 17 3
v -9 17 2
v -9 17 -2
v -9 17 -3
v -9 17 -4
v -9 17 -5
v -9 18 5
v -9 18 4
v -9 18 3
v -9 18 2
v -9 18 -3
v -9 18 -4
v -9 19 5
v -9 19 4
v -9 19 3
v -9 20 4
v -9 20 3
v -9 20 -3
v -9 20 -4
v -9 21 -3
v -9 21 -4
v -8 12 4
v -8 12 3
v -8 12 -3
v -8 12 -4
v -8 14 4
v -8 14 3
v -8 14 -3
v -8 14 -4
v -8 17 5
v -8 17 4
v -8 17 -1
v -8 17 -2
v -8 17 -3
v -8 17 -4
v -8 17 -5
v -8 18 6
v -8 18 5
v -8 18 4
v -8 18 3
v -8 18 2
v -8 18 1
v -8 18 -1
v -8 18 -2
v -8 18 -3
v -8 18 -4
v -8 18 -5
v -8 18 -6
v -8 19 6
v -8 19 5
v -8 19 4
v -8 19 3
v -8 19 2
v -8 19 1
v -8 19 -1
v -8 19 -2
v -8 19 -3
v -8 19 -4
v -8 19 -5
v -8 19 -6
v -8 20 5
v -8 20 4
v -8 20 3
v -8 20 -1
v -8 20 -2
v -8 20 -3
v -8 20 -4
v -8 20 -5
v -8 21 3
v -8 21 2
v -8 21 -2
v -8 21 -3
v -8 21 -4
v -8 22 4
v -8 22 3
v -8 22 -3
v -8 22 -4
v -10 2 1
v -10 2 -1
v -10 10 2
v -10 10 1
v -10 10 -1
v -10 10 -2
v -10 11 3
v -10 11 2
v -10 11 -2
v -10 11 -3
v -10 12 4
v -10 12 3
v -10 12 1
v -10 12 -1
v -10 12 -3
v -10 12 -4
v -10 13 4
v -10 13 3
v -10 13 2
v -10 13 1
v -10 13 -1
v -10 13 -2
v -10 13 -3
v -10 13 -4
v -10 14 3
v -10 14 2
v -10 14 -2
v -10 14 -3
v -9 1 2
v -9 1 -2
v -9 2 2
v -9 2 -2
v -9 13 4
v -9 13 3
v -9 13 -3
v -9 13 -4
v -9 14 4
v -9 14 3
v -9 14 -3
v -9 14 -4
v -7 12 4
v -7 12 3
v -7 12 -3
v -7 12 -4
v -7 15 4
v -7 15 3
v -7 15 -3
v -7 15 -4
v -7 17 5
v -7 17 4
v -7 17 3
v -7 17 2
v -7 17 -1
v -7 17 -2
v -7 17 -4
v -7 17 -5
v -7 18 6
v -7 18 5
v -7 18 4
v -7 18 3
v -7 18 2
v -7 18 1
v -7 18 -1
v -7 18 -2
v -7 18 -3
v -7 18 -4
v -7 18 -5
v -7 18 -6
v -7 19 6
v -7 19 5
v -7 19 4
v -7 19 3
v -7 19 2
v -7 19 1
v -7 19 -1
v -7 19 -2
v -7 19 -3
v -7 19 -4
v -7 19 -5
v -7 19 -6
v -7 20 5
v -7 20 4
v -7 20 3
v -7 20 -1
v -7 20 -2
v -7 20 -4
v -7 20 -5
v -7 21 3
v -7 21 2
v -7 21 -2
v -7 21 -3
v -7 21 -4
v -7 22 4
v -7 22 3
v -7 22 -3
v -7 22 -4
v -6 15 5
v -6 15 2
v -6 15 -2
v -6 15 -5
v -6 16 5
v -6 16 4
v -6 16 3
v -6 16 2
v -6 16 -2
v -6 16 -4
v -6 16 -5
v -6 17 5
v -6 17 4
v -6 17 3
v -6 17 2
v -6 17 -3
v -6 17 -4
v -6 17 -5
v -6 18 5
v -6 18 4
v -6 18 3
v -6 18 2
v -6 18 -2
v -6 18 -3
v -6 18 -4
v -6 18 -5
v -6 19 5
v -6 19 4
v -6 19 3
v -6 19 2
v -6 19 -3
v -6 19 -4
v -6 19 -5
v -6 20 4
v -6 20 3
v -6 21 -3
v -6 21 -4
v -5 17 -3
v -5 17 -4
v -5 18 4
v -5 18 3
v -5 18 -3
v -5 18 -4
v -5 19 4
v -5 19 3
v -8 18 6
v -8 19 6
v -7 18 6
v -7 19 6
v -9 15 5
v -9 16 5
v -9 17 5
v -9 18 5
v -9 19 5
v -8 16 5
v -8 17 5
v -8 18 5
v -8 19 5
v -8 20 5
v -7 16 5
v -7 17 5
v -7 18 5
v -7 19 5
v -7 20 5
v -6 15 5
v -6 16 5
v -6 17 5
v -6 18 5
v -6 19 5
v -12 12 4
v -12 14 4
v -11 14 4
v -11 15 4
v -10 12 4
v -10 13 4
v -10 15 4
v -10 16 4
v -10 17 4
v -10 18 4
v -9 13 4
v -9 14 4
v -9 15 4
v -9 16 4
v -9 17 4
v -9 18 4
v -9 19 4
v -9 20 4
v -8 12 4
v -8 14 4
v -8 15 4
v -8 17 4
v -8 18 4
v -8 19 4
v -8 20 4
v -8 22 4
v -7 12 4
v -7 15 4
v -7 17 4
v -7 18 4
v -7 19 4
v -7 20 4
v -7 22 4
v -6 17 4
v -6 18 4
v -6 19 4
v -6 20 4
v -5 18 4
v -5 19 4
v -12 11 3
v -12 12 3
v -10 11 3
v -10 12 3
v -12 1 2
v -12 2 2
v -12 10 2
v -12 11 2
v -10 10 2
v -10 11 2
v -9 1 2
v -9 2 2
v -12 2 1
v -12 10 1
v -10 2 1
v -10 10 1
v -12 12 -1
v -12 13 -1
v -10 12 -1
v -10 13 -1
v -8 17 -1
v -8 18 -1
v -8 19 -1
v -8 20 -1
v -7 17 -1
v -7 18 -1
v -7 19 -1
v -7 20 -1
v -12 13 -2
v -12 14 -2
v -10 13 -2
v -10 14 -2
v -9 15 -2
v -9 16 -2
v -9 17 -2
v -8 16 -2
v -8 17 -2
v -8 18 -2
v -8 19 -2
v -8 20 -2
v -8 21 -2
v -7 17 -2
v -7 18 -2
v -7 19 -2
v -7 20 -2
v -7 21 -2
v -6 15 -2
v -6 16 -2
v -6 18 -2
v -11 14 -3
v -11 15 -3
v -10 13 -3
v -10 14 -3
v -10 15 -3
v -10 16 -3
v -10 18 -3
v -10 19 -3
v -9 13 -3
v -9 14 -3
v -9 15 -3
v -9 16 -3
v -9 17 -3
v -9 18 -3
v -9 19 -3
v -9 20 -3
v -9 21 -3
v -8 12 -3
v -8 14 -3
v -8 15 -3
v -8 17 -3
v -8 18 -3
v -8 19 -3
v -8 20 -3
v -8 21 -3
v -8 22 -3
v -7 12 -3
v -7 15 -3
v -7 18 -3
v -7 19 -3
v -7 21 -3
v -7 22 -3
v -6 17 -3
v -6 18 -3
v -6 19 -3
v -6 21 -3
v -5 17 -3
v -5 18 -3
v -11 14 3
v -11 15 3
v -10 13 3
v -10 14 3
v -10 15 3
v -10 16 3
v -10 17 3
v -10 18 3
v -9 13 3
v -9 14 3
v -9 15 3
v -9 16 3
v -9 17 3
v -9 18 3
v -9 19 3
v -9 20 3
v -8 12 3
v -8 14 3
v -8 15 3
v -8 18 3
v -8 19 3
v -8 20 3
v -8 21 3
v -8 22 3
v -7 12 3
v -7 15 3
v -7 17 3
v -7 18 3
v -7 19 3
v -7 20 3
v -7 21 3
v -7 22 3
v -6 17 3
v -6 18 3
v -6 19 3
v -6 20 3
v -5 18 3
v -5 19 3
v -12 13 2
v -12 14 2
v -10 13 2
v -10 14 2
v -9 15 2
v -9 16 2
v -9 17 2
v -9 18 2
v -8 16 2
v -8 17 2
v -8 18 2
v -8 19 2
v -8 21 2
v -7 16 2
v -7 17 2
v -7 18 2
v -7 19 2
v -7 21 2
v -6 15 2
v -6 16 2
v -6 17 2
v -6 18 2
v -6 19 2
v -12 12 1
v -12 13 1
v -10 12 1
v -10 13 1
v -8 18 1
v -8 19 1
v -7 18 1
v -7 19 1
v -12 2 -1
v -12 10 -1
v -10 2 -1
v -10 10 -1
v -12 1 -2
v -12 2 -2
v -12 10 -2
v -12 11 -2
v -10 10 -2
v -10 11 -2
v -9 1 -2
v -9 2 -2
v -12 11 -3
v -12 12 -3
v -10 11 -3
v -10 12 -3
v -12 12 -4
v -12 14 -4
v -11 14 -4
v -11 15 -4
v -10 12 -4
v -10 13 -4
v -10 15 -4
v -10 16 -4
v -10 18 -4
v -10 19 -4
v -9 13 -4
v -9 14 -4
v -9 15 -4
v -9 16 -4
v -9 17 -4
v -9 18 -4
v -9 19 -4
v -9 20 -4
v -9 21 -4
v -8 12 -4
v -8 14 -4
v -8 15 -4
v -8 17 -4
v -8 18 -4
v -8 19 -4
v -8 20 -4
v -8 21 -4
v -8 22 -4
v -7 12 -4
v -7 15 -4
v -7 17 -4
v -7 18 -4
v -7 19 -4
v -7 20 -4
v -7 21 -4
v -7 22 -4
v -6 17 -4
v -6 18 -4
v -6 19 -4
v -6 21 -4
v -5 17 -4
v -5 18 -4
v -9 15 -5
v -9 16 -5
v -9 17 -5
v -8 16 -5
v -8 17 -5
v -8 18 -5
v -8 19 -5
v -8 20 -5
v -7 16 -5
v -7 17 -5
v -7 18 -5
v -7 19 -5
v -7 20 -5
v -6 15 -5
v -6 16 -5
v -6 17 -5
v -6 18 -5
v -6 19 -5
v -8 18 -6
v -8 19 -6
v -7 18 -6
v -7 19 -6
v -12 1 2
v -9 1 2
v -12 1 -2
v -9 1 -2
v -12 10 2
v -10 10 2
v -12 10 1
v -10 10 1
v -12 10 -1
v -10 10 -1
v -12 10 -2
v -10 10 -2
v -12 11 3
v -10 11 3
v -12 11 2
v -10 11 2
v -12 11 -2
v -10 11 -2
v -12 11 -3
v -10 11 -3
v -12 12 4
v -10 12 4
v -8 12 4
v -7 12 4
v -12 12 3
v -10 12 3
v -8 12 3
v -7 12 3
v -12 12 -3
v -10 12 -3
v -8 12 -3
v -7 12 -3
v -12 12 -4
v -10 12 -4
v -8 12 -4
v -7 12 -4
v -10 13 4
v -9 13 4
v -10 13 3
v -9 13 3
v -10 13 -3
v -9 13 -3
v -10 13 -4
v -9 13 -4
v -9 14 4
v -8 14 4
v -9 14 3
v -8 14 3
v -9 14 -3
v -8 14 -3
v -9 14 -4
v -8 14 -4
v -9 15 5
v -6 15 5
v -9 15 4
v -8 15 4
v -7 15 4
v -9 15 3
v -8 15 3
v -7 15 3
v -9 15 2
v -6 15 2
v -9 15 -2
v -6 15 -2
v -9 15 -3
v -8 15 -3
v -7 15 -3
v -9 15 -4
v -8 15 -4
v -7 15 -4
v -9 15 -5
v -6 15 -5
v -10 17 4
v -9 17 4
v -10 17 3
v -9 17 3
v -8 17 -1
v -7 17 -1
v -8 17 -2
v -7 17 -2
v -6 17 -3
v -5 17 -3
v -6 17 -4
v -5 17 -4
v -8 18 6
v -7 18 6
v -9 18 5
v -8 18 5
v -7 18 5
v -6 18 5
v -9 18 4
v -8 18 4
v -7 18 4
v -6 18 4
v -5 18 4
v -7 18 3
v -6 18 3
v -5 18 3
v -8 18 2
v -7 18 2
v -6 18 2
v -8 18 1
v -7 18 1
v -10 18 -3
v -9 18 -3
v -10 18 -4
v -9 18 -4
v -7 18 -4
v -6 18 -4
v -8 18 -5
v -7 18 -5
v -6 18 -5
v -8 18 -6
v -7 18 -6
v -8 19 -1
v -7 19 -1
v -8 19 -2
v -7 19 -2
v -9 20 -3
v -8 20 -3
v -9 20 -4
v -8 20 -4
v -12 2 2
v -9 2 2
v -12 2 1
v -10 2 1
v -12 2 -1
v -10 2 -1
v -12 2 -2
v -9 2 -2
v -12 12 1
v -10 12 1
v -12 12 -1
v -10 12 -1
v -12 13 2
v -10 13 2
v -12 13 1
v -10 13 1
v -12 13 -1
v -10 13 -1
v -12 13 -2
v -10 13 -2
v -12 14 4
v -11 14 4
v -11 14 3
v -10 14 3
v -12 14 2
v -10 14 2
v -12 14 -2
v -10 14 -2
v -11 14 -3
v -10 14 -3
v -12 14 -4
v -11 14 -4
v -11 15 4
v -10 15 4
v -11 15 3
v -10 15 3
v -11 15 -3
v -10 15 -3
v -11 15 -4
v -10 15 -4
v -10 16 4
v -9 16 4
v -10 16 3
v -9 16 3
v -10 16 -3
v -9 16 -3
v -10 16 -4
v -9 16 -4
v -9 17 5
v -8 17 5
v -7 17 5
v -6 17 5
v -9 17 4
v -8 17 4
v -7 17 4
v -6 17 4
v -7 17 3
v -6 17 3
v -7 17 2
v -6 17 2
v -9 17 -2
v -8 17 -2
v -9 17 -3
v -8 17 -3
v -9 17 -4
v -8 17 -4
v -7 17 -4
v -6 17 -4
v -9 17 -5
v -8 17 -5
v -7 17 -5
v -6 17 -5
v -10 18 4
v -9 18 4
v -10 18 3
v -9 18 3
v -8 18 3
v -9 18 2
v -8 18 2
v -8 18 -1
v -7 18 -1
v -8 18 -2
v -7 18 -2
v -6 18 -2
v -7 18 -3
v -6 18 -3
v -5 18 -3
v -6 18 -4
v -5 18 -4
v -8 19 6
v -7 19 6
v -9 19 5
v -8 19 5
v -7 19 5
v -6 19 5
v -9 19 4
v -8 19 4
v -7 19 4
v -6 19 4
v -5 19 4
v -7 19 3
v -6 19 3
v -5 19 3
v -8 19 2
v -7 19 2
v -6 19 2
v -8 19 1
v -7 19 1
v -10 19 -3
v -9 19 -3
v -8 19 -3
v -10 19 -4
v -9 19 -4
v -8 19 -4
v -7 19 -4
v -6 19 -4
v -8 19 -5
v -7 19 -5
v -6 19 -5
v -8 19 -6
v -7 19 -6
v -8 20 5
v -7 20 5
v -9 20 4
v -8 20 4
v -7 20 4
v -6 20 4
v -9 20 3
v -8 20 3
v -7 20 3
v -6 20 3
v -8 20 -1
v -7 20 -1
v -8 20 -2
v -7 20 -2
v -8 20 -4
v -7 20 -4
v -8 20 -5
v -7 20 -5
v -8 21 3
v -7 21 3
v -8 21 2
v -7 21 2
v -8 21 -2
v -7 21 -2
v -9 21 -3
v -8 21 -3
v -7 21 -3
v -6 21 -3
v -9 21 -4
v -8 21 -4
v -7 21 -4
v -6 21 -4
v -8 22 4
v -7 22 4
v -8 22 3
v -7 22 3
v -8 22 -3
v -7 22 -3
v -8 22 -4
v -7 22 -4

# faces
f 3/5/1 2/5/1 1/5/1
f 4/5/1 2/5/1 3/5/1
f 5/5/1 2/5/1 4/5/1
f 6/5/1 2/5/1 5/5/1
f 8/5/1 5/5/1 4/5/1
f 9/5/1 5/5/1 8/5/1
f 12/5/1 8/5/1 7/5/1
f 12/5/1 10/5/1 9/5/1
f 12/5/1 9/5/1 8/5/1
f 13/5/1 10/5/1 12/5/1
f 16/5/1 13/5/1 12/5/1
f 16/5/1 14/5/1 13/5/1
f 16/5/1 12/5/1 11/5/1
f 17/5/1 14/5/1 16/5/1
f 18/5/1 14/5/1 17/5/1
f 19/5/1 14/5/1 18/5/1
f 21/5/1 16/5/1 15/5/1
f 21/5/1 17/5/1 16/5/1
f 22/5/1 17/5/1 21/5/1
f 23/5/1 20/5/1 19/5/1
f 23/5/1 19/5/1 18/5/1
f 24/5/1 20/5/1 23/5/1
f 25/5/1 21/5/1 15/5/1
f 26/5/1 21/5/1 25/5/1
f 27/5/1 20/5/1 24/5/1
f 28/5/1 20/5/1 27/5/1
f 33/5/1 30/5/1 29/5/1
f 34/5/1 30/5/1 33/5/1
f 35/5/1 32/5/1 31/5/1
f 36/5/1 32/5/1 35/5/1
f 41/5/1 38/5/1 37/5/1
f 42/5/1 38/5/1 41/5/1
f 43/5/1 40/5/1 39/5/1
f 44/5/1 40/5/1 43/5/1
f 47/2/1 46/2/1 45/2/1
f 48/2/1 46/2/1 47/2/1
f 51/2/1 50/2/1 49/2/1
f 52/2/1 50/2/1 51/2/1
f 61/1/1 54/1/1 53/1/1
f 62/1/1 54/1/1 61/1/1
f 63/1/1 56/1/1 55/1/1
f 64/1/1 56/1/1 63/1/1
f 65/1/1 58/1/1 57/1/1
f 66/1/1 58/1/1 65/1/1
f 67/1/1 60/1/1 59/1/1
f 68/1/1 60/1/1 67/1/1
f 69/2/1 62/2/1 61/2/1
f 70/4/1 63/4/1 62/4/1
f 70/2/1 62/2/1 69/2/1
f 71/2/1 64/2/1 63/2/1
f 71/4/1 63/4/1 70/4/1
f 72/2/1 64/2/1 71/2/1
f 73/2/1 66/2/1 65/2/1
f 74/4/1 67/4/1 66/4/1
f 74/2/1 66/2/1 73/2/1
f 75/2/1 68/2/1 67/2/1
f 75/4/1 67/4/1 74/4/1
f 76/2/1 68/2/1 75/2/1
f 79/4/1 72/4/1 71/4/1
f 80/4/1 72/4/1 79/4/1
f 81/2/1 75/2/1 74/2/1
f 82/2/1 75/2/1 81/2/1
f 83/2/1 78/2/1 77/2/1
f 83/2/1 79/2/1 78/2/1
f 84/2/1 79/2/1 83/2/1
f 85/2/1 79/2/1 84/2/1
f 86/3/1 85/3/1 84/3/1
f 87/3/1 85/3/1 86/3/1
f 90/3/1 89/3/1 88/3/1
f 91/3/1 89/3/1 90/3/1
f 96/1/1 93/1/1 92/1/1
f 97/1/1 93/1/1 96/1/1
f 98/1/1 95/1/1 94/1/1
f 99/1/1 95/1/1 98/1/1
f 108/2/1 101/2/1 100/2/1
f 109/2/1 101/2/1 108/2/1
f 113/2/1 104/2/1 103/2/1
f 113/2/1 103/2/1 102/2/1
f 114/2/1 104/2/1 113/2/1
f 115/2/1 104/2/1 114/2/1
f 116/2/1 106/2/1 105/2/1
f 117/2/1 106/2/1 116/2/1
f 119/2/1 108/2/1 107/2/1
f 120/2/1 108/2/1 119/2/1
f 122/3/1 111/3/1 110/3/1
f 123/2/1 112/2/1 111/2/1
f 123/3/1 111/3/1 122/3/1
f 124/2/1 112/2/1 123/2/1
f 126/2/1 115/2/1 114/2/1
f 127/2/1 115/2/1 126/2/1
f 128/3/1 117/3/1 116/3/1
f 129/2/1 118/2/1 117/2/1
f 129/3/1 117/3/1 128/3/1
f 130/2/1 118/2/1 129/2/1
f 131/3/1 121/3/1 120/3/1
f 132/3/1 121/3/1 131/3/1
f 133/3/1 123/3/1 122/3/1
f 134/3/1 129/3/1 128/3/1
f 134/3/1 128/3/1 127/3/1
f 134/3/1 127/3/1 126/3/1
f 134/3/1 126/3/1 125/3/1
f 135/3/1 129/3/1 134/3/1
f 136/3/1 129/3/1 135/3/1
f 137/3/1 129/3/1 136/3/1
f 138/3/1 129/3/1 137/3/1
f 139/3/1 133/3/1 132/3/1
f 139/3/1 123/3/1 133/3/1
f 140/3/1 123/3/1 139/3/1
f 141/3/1 136/3/1 135/3/1
f 142/3/1 136/3/1 141/3/1
f 144/3/1 139/3/1 132/3/1
f 145/3/1 139/3/1 144/3/1
f 146/3/1 143/3/1 142/3/1
f 147/3/1 143/3/1 146/3/1
f 148/5/2 149/5/2 151/5/2
f 151/5/2 149/5/2 152/5/2
f 150/5/2 151/5/2 155/5/2
f 152/5/2 153/5/2 155/5/2
f 151/5/2 152/5/2 155/5/2
f 155/5/2 153/5/2 156/5/2
f 154/5/2 155/5/2 159/5/2
f 156/5/2 157/5/2 159/5/2
f 155/5/2 156/5/2 159/5/2
f 159/5/2 157/5/2 160/5/2
f 160/5/2 157/5/2 161/5/2
f 161/5/2 157/5/2 162/5/2
f 158/5/2 159/5/2 164/5/2
f 159/5/2 160/5/2 164/5/2
f 164/5/2 160/5/2 165/5/2
f 165/5/2 160/5/2 166/5/2
f 166/5/2 160/5/2 167/5/2
f 162/5/2 163/5/2 168/5/2
f 161/5/2 162/5/2 168/5/2
f 168/5/2 163/5/2 169/5/2
f 169/5/2 163/5/2 170/5/2
f 170/5/2 163/5/2 171/5/2
f 165/5/2 166/5/2 172/5/2
f 172/5/2 166/5/2 173/5/2
f 169/5/2 170/5/2 174/5/2
f 174/5/2 170/5/2 175/5/2
f 176/5/2 177/5/2 178/5/2
f 178/5/2 177/5/2 179/5/2
f 180/5/2 181/5/2 184/5/2
f 184/5/2 181/5/2 185/5/2
f 182/5/2 183/5/2 186/5/2
f 186/5/2 183/5/2 187/5/2
f 188/1/2 189/1/2 192/1/2
f 192/1/2 189/1/2 193/1/2
f 190/1/2 191/1/2 194/1/2
f 194/1/2 191/1/2 195/1/2
f 196/2/2 197/2/2 205/2/2
f 205/2/2 197/2/2 206/2/2
f 198/4/2 199/4/2 207/4/2
f 207/4/2 199/4/2 208/4/2
f 200/2/2 201/2/2 210/2/2
f 210/2/2 201/2/2 211/2/2
f 202/2/2 203/2/2 213/2/2
f 213/2/2 203/2/2 214/2/2
f 204/2/2 205/2/2 216/2/2
f 216/2/2 205/2/2 217/2/2
f 208/2/2 209/2/2 220/2/2
f 220/2/2 209/2/2 221/2/2
f 211/2/2 212/2/2 223/2/2
f 223/2/2 212/2/2 224/2/2
f 214/2/2 215/2/2 226/2/2
f 226/2/2 215/2/2 227/2/2
f 217/3/2 218/3/2 228/3/2
f 228/3/2 218/3/2 229/3/2
f 219/3/2 220/3/2 230/3/2
f 223/3/2 224/3/2 231/3/2
f 222/3/2 223/3/2 231/3/2
f 231/3/2 224/3/2 232/3/2
f 225/3/2 226/3/2 233/3/2
f 233/3/2 226/3/2 234/3/2
f 229/3/2 230/3/2 235/3/2
f 230/3/2 220/3/2 235/3/2
f 235/3/2 220/3/2 236/3/2
f 232/3/2 224/3/2 237/3/2
f 237/3/2 224/3/2 238/3/2
f 229/3/2 235/3/2 240/3/2
f 240/3/2 235/3/2 241/3/2
f 238/3/2 239/3/2 242/3/2
f 242/3/2 239/3/2 243/3/2
f 244/1/2 245/1/2 248/1/2
f 248/1/2 245/1/2 249/1/2
f 249/1/2 245/1/2 250/1/2
f 250/1/2 245/1/2 251/1/2
f 246/1/2 247/1/2 252/1/2
f 252/1/2 247/1/2 253/1/2
f 253/1/2 247/1/2 254/1/2
f 248/2/2 249/2/2 255/2/2
f 249/4/2 250/4/2 256/4/2
f 255/2/2 249/2/2 256/2/2
f 250/2/2 251/2/2 257/2/2
f 256/4/2 250/4/2 257/4/2
f 257/2/2 251/2/2 258/2/2
f 252/4/2 253/4/2 259/4/2
f 253/2/2 254/2/2 260/2/2
f 259/4/2 253/4/2 260/4/2
f 260/2/2 254/2/2 261/2/2
f 256/2/2 257/2/2 263/2/2
f 263/2/2 257/2/2 264/2/2
f 252/4/2 259/4/2 266/4/2
f 266/4/2 259/4/2 267/4/2
f 262/3/2 263/3/2 270/3/2
f 270/3/2 263/3/2 271/3/2
f 264/3/2 265/3/2 272/3/2
f 272/3/2 265/3/2 273/3/2
f 267/2/2 268/2/2 274/2/2
f 268/3/2 269/3/2 275/3/2
f 274/2/2 268/2/2 275/2/2
f 275/3/2 269/3/2 276/3/2
f 271/3/2 272/3/2 277/3/2
f 277/3/2 272/3/2 278/3/2
f 274/3/2 275/3/2 279/3/2
f 279/3/2 275/3/2 280/3/2
f 281/2/2 282/2/2 285/2/2
f 285/2/2 282/2/2 286/2/2
f 283/2/2 284/2/2 287/2/2
f 287/2/2 284/2/2 288/2/2
f 291/2/3 290/2/3 289/2/3
f 292/2/3 290/2/3 291/2/3
f 298/1/3 294/1/3 293/1/3
f 298/2/3 295/2/3 294/2/3
f 299/2/3 295/2/3 298/2/3
f 300/2/3 297/2/3 296/2/3
f 301/2/3 297/2/3 300/2/3
f 303/4/3 299/4/3 298/4/3
f 303/1/3 298/1/3 293/1/3
f 304/2/3 300/2/3 299/2/3
f 304/4/3 299/4/3 303/4/3
f 305/2/3 300/2/3 304/2/3
f 306/3/3 302/3/3 301/3/3
f 307/3/3 302/3/3 306/3/3
f 308/1/3 303/1/3 293/1/3
f 309/2/3 304/2/3 303/2/3
f 309/1/3 303/1/3 308/1/3
f 310/2/3 304/2/3 309/2/3
f 311/3/3 306/3/3 305/3/3
f 312/3/3 306/3/3 311/3/3
f 315/5/3 314/5/3 313/5/3
f 317/5/3 315/5/3 313/5/3
f 317/5/3 316/5/3 315/5/3
f 318/5/3 316/5/3 317/5/3
f 319/5/3 316/5/3 318/5/3
f 323/5/3 319/5/3 318/5/3
f 323/5/3 320/5/3 319/5/3
f 324/5/3 320/5/3 323/5/3
f 325/5/3 320/5/3 324/5/3
f 326/5/3 320/5/3 325/5/3
f 327/2/3 322/2/3 321/2/3
f 328/2/3 322/2/3 327/2/3
f 332/5/3 325/5/3 324/5/3
f 333/5/3 325/5/3 332/5/3
f 334/2/3 328/2/3 327/2/3
f 335/2/3 328/2/3 334/2/3
f 336/3/3 330/3/3 329/3/3
f 337/3/3 330/3/3 336/3/3
f 339/1/3 333/1/3 332/1/3
f 339/1/3 332/1/3 331/1/3
f 340/1/3 333/1/3 339/1/3
f 344/3/3 338/3/3 337/3/3
f 345/3/3 338/3/3 344/3/3
f 346/2/3 342/2/3 341/2/3
f 347/2/3 342/2/3 346/2/3
f 348/3/3 344/3/3 343/3/3
f 349/3/3 344/3/3 348/3/3
f 350/2/3 348/2/3 347/2/3
f 351/2/3 348/2/3 350/2/3
f 354/5/3 353/5/3 352/5/3
f 355/5/3 353/5/3 354/5/3
f 360/5/3 359/5/3 358/5/3
f 361/5/3 359/5/3 360/5/3
f 362/5/3 357/5/3 356/5/3
f 363/5/3 357/5/3 362/5/3
f 366/5/3 365/5/3 364/5/3
f 367/5/3 365/5/3 366/5/3
f 370/5/3 369/5/3 368/5/3
f 371/5/3 369/5/3 370/5/3
f 376/2/3 373/2/3 372/2/3
f 377/2/3 373/2/3 376/2/3
f 378/3/3 375/3/3 374/3/3
f 379/3/3 375/3/3 378/3/3
f 382/5/3 381/5/3 380/5/3
f 383/5/3 381/5/3 382/5/3
f 387/1/3 385/1/3 384/1/3
f 387/2/3 386/2/3 385/2/3
f 388/2/3 386/2/3 387/2/3
f 393/4/3 388/4/3 387/4/3
f 394/2/3 390/2/3 389/2/3
f 395/2/3 390/2/3 394/2/3
f 396/3/3 392/3/3 391/3/3
f 397/3/3 392/3/3 396/3/3
f 398/1/3 387/1/3 384/1/3
f 399/4/3 393/4/3 387/4/3
f 399/1/3 387/1/3 398/1/3
f 399/4/3 394/4/3 393/4/3
f 400/4/3 394/4/3 399/4/3
f 404/5/3 402/5/3 401/5/3
f 405/5/3 402/5/3 404/5/3
f 409/5/3 404/5/3 403/5/3
f 409/5/3 405/5/3 404/5/3
f 409/5/3 406/5/3 405/5/3
f 410/5/3 406/5/3 409/5/3
f 411/5/3 406/5/3 410/5/3
f 412/5/3 406/5/3 411/5/3
f 414/2/3 408/2/3 407/2/3
f 415/2/3 408/2/3 414/2/3
f 419/5/3 411/5/3 410/5/3
f 420/5/3 411/5/3 419/5/3
f 421/2/3 414/2/3 413/2/3
f 422/3/3 415/3/3 414/3/3
f 422/2/3 414/2/3 421/2/3
f 423/3/3 415/3/3 422/3/3
f 424/3/3 417/3/3 416/3/3
f 425/3/3 417/3/3 424/3/3
f 427/1/3 420/1/3 419/1/3
f 427/1/3 419/1/3 418/1/3
f 428/1/3 420/1/3 427/1/3
f 431/3/3 426/3/3 425/3/3
f 432/3/3 426/3/3 431/3/3
f 434/2/3 430/2/3 429/2/3
f 435/3/3 431/3/3 430/3/3
f 435/2/3 430/2/3 434/2/3
f 436/3/3 431/3/3 435/3/3
f 437/2/3 434/2/3 433/2/3
f 438/2/3 434/2/3 437/2/3
f 439/5/4 440/5/4 442/5/4
f 442/5/4 440/5/4 443/5/4
f 441/5/4 442/5/4 447/5/4
f 442/5/4 443/5/4 447/5/4
f 443/5/4 444/5/4 447/5/4
f 447/5/4 444/5/4 448/5/4
f 448/5/4 444/5/4 449/5/4
f 449/5/4 444/5/4 450/5/4
f 445/2/4 446/2/4 451/2/4
f 451/2/4 446/2/4 452/2/4
f 448/5/4 449/5/4 456/5/4
f 456/5/4 449/5/4 457/5/4
f 452/2/4 453/2/4 458/2/4
f 453/3/4 454/3/4 459/3/4
f 458/2/4 453/2/4 459/2/4
f 459/3/4 454/3/4 460/3/4
f 456/1/4 457/1/4 463/1/4
f 455/1/4 456/1/4 463/1/4
f 463/1/4 457/1/4 464/1/4
f 461/3/4 462/3/4 469/3/4
f 469/3/4 462/3/4 470/3/4
f 465/2/4 466/2/4 471/2/4
f 471/2/4 466/2/4 472/2/4
f 467/3/4 468/3/4 473/3/4
f 473/3/4 468/3/4 474/3/4
f 472/2/4 473/2/4 475/2/4
f 475/2/4 473/2/4 476/2/4
f 477/5/4 478/5/4 479/5/4
f 479/5/4 478/5/4 480/5/4
f 481/1/4 482/1/4 485/1/4
f 482/2/4 483/2/4 485/2/4
f 483/4/4 484/4/4 486/4/4
f 485/2/4 483/2/4 486/2/4
f 486/4/4 484/4/4 487/4/4
f 481/1/4 485/1/4 490/1/4
f 485/4/4 486/4/4 490/4/4
f 486/4/4 487/4/4 490/4/4
f 490/4/4 487/4/4 491/4/4
f 491/4/4 487/4/4 492/4/4
f 488/3/4 489/3/4 493/3/4
f 493/3/4 489/3/4 494/3/4
f 481/1/4 490/1/4 495/1/4
f 490/2/4 491/2/4 496/2/4
f 495/1/4 490/1/4 496/1/4
f 496/2/4 491/2/4 497/2/4
f 492/3/4 493/3/4 498/3/4
f 498/3/4 493/3/4 499/3/4
f 500/5/4 501/5/4 502/5/4
f 502/5/4 501/5/4 503/5/4
f 504/2/4 505/2/4 506/2/4
f 506/2/4 505/2/4 507/2/4
f 508/5/4 509/5/4 510/5/4
f 510/5/4 509/5/4 511/5/4
f 514/5/4 515/5/4 516/5/4
f 516/5/4 515/5/4 517/5/4
f 512/5/4 513/5/4 518/5/4
f 518/5/4 513/5/4 519/5/4
f 520/5/4 521/5/4 522/5/4
f 522/5/4 521/5/4 523/5/4
f 524/5/4 525/5/4 526/5/4
f 524/5/4 526/5/4 528/5/4
f 526/5/4 527/5/4 528/5/4
f 528/5/4 527/5/4 529/5/4
f 529/5/4 527/5/4 530/5/4
f 529/5/4 530/5/4 534/5/4
f 530/5/4 531/5/4 534/5/4
f 534/5/4 531/5/4 535/5/4
f 535/5/4 531/5/4 536/5/4
f 536/5/4 531/5/4 537/5/4
f 532/2/4 533/2/4 539/2/4
f 539/2/4 533/2/4 540/2/4
f 535/5/4 536/5/4 544/5/4
f 544/5/4 536/5/4 545/5/4
f 538/2/4 539/2/4 546/2/4
f 539/3/4 540/3/4 547/3/4
f 546/2/4 539/2/4 547/2/4
f 547/3/4 540/3/4 548/3/4
f 541/3/4 542/3/4 549/3/4
f 549/3/4 542/3/4 550/3/4
f 544/1/4 545/1/4 552/1/4
f 543/1/4 544/1/4 552/1/4
f 552/1/4 545/1/4 553/1/4
f 550/3/4 551/3/4 557/3/4
f 549/3/4 550/3/4 557/3/4
f 557/3/4 551/3/4 558/3/4
f 558/3/4 551/3/4 559/3/4
f 554/4/4 555/4/4 560/4/4
f 560/4/4 555/4/4 561/4/4
f 557/3/4 558/3/4 562/3/4
f 556/3/4 557/3/4 562/3/4
f 562/3/4 558/3/4 563/3/4
f 560/2/4 561/2/4 564/2/4
f 564/2/4 561/2/4 565/2/4
f 566/1/4 567/1/4 569/1/4
f 567/2/4 568/2/4 569/2/4
f 569/2/4 568/2/4 570/2/4
f 566/1/4 569/1/4 574/1/4
f 569/4/4 570/4/4 574/4/4
f 570/2/4 571/2/4 575/2/4
f 574/4/4 570/4/4 575/4/4
f 575/2/4 571/2/4 576/2/4
f 572/3/4 573/3/4 577/3/4
f 577/3/4 573/3/4 578/3/4
f 566/1/4 574/1/4 579/1/4
f 574/2/4 575/2/4 580/2/4
f 579/1/4 574/1/4 580/1/4
f 580/2/4 575/2/4 581/2/4
f 576/3/4 577/3/4 582/3/4
f 582/3/4 577/3/4 583/3/4
f 584/2/4 585/2/4 586/2/4
f 586/2/4 585/2/4 587/2/4
f 590/5/5 589/5/5 588/5/5
f 591/5/5 589/5/5 590/5/5
f 594/5/5 593/5/5 592/5/5
f 595/5/5 593/5/5 594/5/5
f 598/5/5 597/5/5 596/5/5
f 599/5/5 597/5/5 598/5/5
f 602/5/5 601/5/5 600/5/5
f 603/5/5 601/5/5 602/5/5
f 606/5/5 605/5/5 604/5/5
f 607/5/5 605/5/5 606/5/5
f 612/5/5 609/5/5 608/5/5
f 613/5/5 609/5/5 612/5/5
f 614/1/5 611/1/5 610/1/5
f 615/1/5 611/1/5 614/1/5
f 620/5/5 617/5/5 616/5/5
f 621/5/5 617/5/5 620/5/5
f 622/1/5 619/1/5 618/1/5
f 623/1/5 619/1/5 622/1/5
f 626/5/5 625/5/5 624/5/5
f 627/5/5 625/5/5 626/5/5
f 630/5/5 629/5/5 628/5/5
f 631/5/5 629/5/5 630/5/5
f 634/5/5 633/5/5 632/5/5
f 635/5/5 633/5/5 634/5/5
f 638/5/5 637/5/5 636/5/5
f 639/5/5 637/5/5 638/5/5
f 642/1/5 641/1/5 640/1/5
f 643/1/5 641/1/5 642/1/5
f 644/1/5 641/1/5 643/1/5
f 647/1/5 641/1/5 644/1/5
f 648/1/5 646/1/5 645/1/5
f 648/1/5 647/1/5 646/1/5
f 649/1/5 641/1/5 647/1/5
f 649/1/5 647/1/5 648/1/5
f 652/1/5 651/1/5 650/1/5
f 653/1/5 651/1/5 652/1/5
f 654/1/5 651/1/5 653/1/5
f 657/1/5 651/1/5 654/1/5
f 658/1/5 656/1/5 655/1/5
f 658/1/5 657/1/5 656/1/5
f 659/1/5 651/1/5 657/1/5
f 659/1/5 657/1/5 658/1/5
f 662/2/5 661/2/5 660/2/5
f 663/2/5 661/2/5 662/2/5
f 666/2/5 665/2/5 664/2/5
f 667/2/5 665/2/5 666/2/5
f 670/2/5 669/2/5 668/2/5
f 671/2/5 669/2/5 670/2/5
f 675/2/5 673/2/5 672/2/5
f 676/2/5 673/2/5 675/2/5
f 678/2/5 675/2/5 674/2/5
f 679/2/5 675/2/5 678/2/5
f 680/3/5 677/3/5 676/3/5
f 681/3/5 677/3/5 680/3/5
f 684/2/5 682/2/5 681/2/5
f 685/2/5 682/2/5 684/2/5
f 687/3/5 684/3/5 683/3/5
f 688/3/5 684/3/5 687/3/5
f 689/2/5 687/2/5 686/2/5
f 690/2/5 687/2/5 689/2/5
f 693/2/5 692/2/5 691/2/5
f 694/2/5 692/2/5 693/2/5
f 698/3/5 696/3/5 695/3/5
f 699/3/5 696/3/5 698/3/5
f 700/2/5 698/2/5 697/2/5
f 701/2/5 698/2/5 700/2/5
f 704/3/5 703/3/5 702/3/5
f 705/3/5 703/3/5 704/3/5
f 708/3/5 707/3/5 706/3/5
f 709/3/5 707/3/5 708/3/5
f 710/5/6 711/5/6 712/5/6
f 712/5/6 711/5/6 713/5/6
f 713/5/6 711/5/6 715/5/6
f 714/5/6 715/5/6 716/5/6
f 715/5/6 711/5/6 717/5/6
f 716/5/6 715/5/6 717/5/6
f 718/5/6 719/5/6 720/5/6
f 720/5/6 719/5/6 721/5/6
f 722/5/6 723/5/6 724/5/6
f 724/5/6 723/5/6 725/5/6
f 726/5/6 727/5/6 728/5/6
f 728/5/6 727/5/6 729/5/6
f 730/5/6 731/5/6 732/5/6
f 730/5/6 732/5/6 734/5/6
f 732/5/6 733/5/6 734/5/6
f 734/5/6 733/5/6 735/5/6
f 736/5/6 737/5/6 738/5/6
f 738/5/6 737/5/6 739/5/6
f 736/5/6 738/5/6 740/5/6
f 740/5/6 738/5/6 741/5/6
f 742/5/6 743/5/6 744/5/6
f 744/5/6 743/5/6 745/5/6
f 746/5/6 747/5/6 748/5/6
f 748/5/6 747/5/6 749/5/6
f 750/5/6 751/5/6 752/5/6
f 752/5/6 751/5/6 753/5/6
f 754/5/6 755/5/6 756/5/6
f 756/5/6 755/5/6 757/5/6
f 758/2/6 759/2/6 762/2/6
f 762/2/6 759/2/6 763/2/6
f 760/2/6 761/2/6 764/2/6
f 764/2/6 761/2/6 765/2/6
f 766/2/6 767/2/6 768/2/6
f 768/2/6 767/2/6 769/2/6
f 770/2/6 771/2/6 772/2/6
f 772/2/6 771/2/6 773/2/6
f 774/2/6 775/2/6 778/2/6
f 778/2/6 775/2/6 779/2/6
f 776/2/6 777/2/6 780/2/6
f 780/2/6 777/2/6 781/2/6
f 782/2/6 783/2/6 784/2/6
f 784/2/6 783/2/6 785/2/6
f 785/4/6 786/4/6 787/4/6
f 787/4/6 786/4/6 788/4/6
f 789/2/6 790/2/6 791/2/6
f 791/2/6 790/2/6 792/2/6
f 792/4/6 793/4/6 794/4/6
f 794/4/6 793/4/6 795/4/6
f 795/2/6 796/2/6 797/2/6
f 797/2/6 796/2/6 798/2/6
f 799/2/6 800/2/6 802/2/6
f 802/2/6 800/2/6 803/2/6
f 801/2/6 802/2/6 805/2/6
f 805/2/6 802/2/6 806/2/6
f 803/3/6 804/3/6 807/3/6
f 807/3/6 804/3/6 808/3/6
f 808/2/6 809/2/6 811/2/6
f 811/2/6 809/2/6 812/2/6
f 810/3/6 811/3/6 814/3/6
f 814/3/6 811/3/6 815/3/6
f 813/2/6 814/2/6 816/2/6
f 816/2/6 814/2/6 817/2/6
f 818/2/6 819/2/6 821/2/6
f 819/3/6 820/3/6 822/3/6
f 821/2/6 819/2/6 822/2/6
f 822/3/6 820/3/6 823/3/6
f 824/3/6 825/3/6 827/3/6
f 827/3/6 825/3/6 828/3/6
f 826/2/6 827/2/6 829/2/6
f 829/2/6 827/2/6 830/2/6
f 831/3/6 832/3/6 834/3/6
f 834/3/6 832/3/6 835/3/6
f 833/3/6 834/3/6 837/3/6
f 837/3/6 834/3/6 838/3/6
f 835/3/6 836/3/6 839/3/6
f 839/3/6 836/3/6 840/3/6
f 841/3/6 842/3/6 843/3/6
f 843/3/6 842/3/6 844/3/6
f 845/3/6 846/3/6 847/3/6
f 847/3/6 846/3/6 848/3/6
f 849/3/6 850/3/6 851/3/6
f 851/3/6 850/3/6 852/3/6
f 853/3/6 854/3/6 856/3/6
f 856/3/6 854/3/6 857/3/6
f 855/3/6 856/3/6 859/3/6
f 859/3/6 856/3/6 860/3/6
f 857/3/6 858/3/6 861/3/6
f 861/3/6 858/3/6 862/3/6
f 863/3/6 864/3/6 865/3/6
f 865/3/6 864/3/6 866/3/6
f 867/3/6 868/3/6 869/3/6
f 869/3/6 868/3/6 870/3/6
